<svg xmlns="http://www.w3.org/2000/svg" width="1024" height="1024" viewBox="0 0 1024 1024">
  <path d="m736 920 16-1 81-3 53-2-87 6c-23 1-41 2-63 0m-112-9c-2-4-7-14-8-19q-1-4 1-1l11 21q0 2-4-1m7-2c-4-3-8-13-8-18l2-12q4-13 1-21-2-8 1-1 3 9-1 23l-1 12q3 9 7 14l3 3q0 5-4 0m5-1c-2-2-7-10-6-12l1 2q4 9 8 10l-1-1-2-5q-1-3 1 1l4 5 3 2h-3zm-19-1q-6-5-11-12-1-3-3-2t-8-8c-5-9-6-13-7-25 0-14-1-26-3-28l-2-6-2-5q-2-3-2 0l4 15q2 4-1 1l-4-12-3-12c-1-2-1-7 2-23q3-23 3-12l1 5v1c-1-2-3 10-3 16v6l1-6q3-20 2-2c0 12 0 13 4 22q6 17 6 35c0 15 2 20 6 28l5 6v-4l-2-10-1-5 2 5q3 9 2 1v-4q1-2 2 6 0 8 4 15 7 13 2 0-7-16-1-3l8 13q7 10-1 4m-1-3-1-2q-3-2-1 1zm29 4q-5-2-6-8-2-7 1 0l5 6 4 3zm-105-8a1015 1015 0 0 1-122-23l-62-9-127-19c-23-5-38-6-74-6l3-2c28 0 43 1 66 5l126 19c40 6 79 12 105 18a835 835 0 0 0 114 21zm113-2v-19 8q2 13 1-5 0-5 2-2l2 7 1 6 3-7 1-5q0 9-6 16-3 4-4 1m7-1 1-2c2-2 6-14 7-23q1-13 1-3c0 7-2 18-4 23q-4 6-5 5m-12-14v-15c2 6 3 20 2 25q-1 6-2-10m25 0 2-11a121 121 0 0 0-7-33l3 4q4 10 5 7l1-2 3-4 3-4q2 0 1-5c-1-9-4-15-18-36l-5-9 20 30-1-7-11-31q-6-10 1-6l2 2-1-4q-1-5-11-14l-11-13-5-7-3-3 3 5q3 4 1 4l-3-5-12-23 17 20-1-8q0-8-4-12-2-2-1 1v1l-8-12q5 8 0-3l-2-8q0-1 0 0c-1 0-18-16-18-18 0-1-8-4-14-4l-9 2h-3c2-2 11-4 17-3l5 1q1-1-1-1v-1q2 0-2-3-6-7-19-4l-8 2q-2 0-1-1l6-2q9-3 18 0l3 1-3-3q-1-3-9-4l-12 2q-9 2-2-1l12-2 7-1c-2-4-16-3-26 1q-10 3 0-2 5-2 15-2l9-1c-2-4-16-5-23-2h-4l6-2q4-2 12-1c9 2 9 2 8 0s-12-6-16-6c-5 0-14 4-17 7l-3 1c0-2 10-7 17-9l4-1-2-4q-5-6-4-14v-2q3 16 12 22 7 4 2 0-3-1-5-6c-3-5-6-15-5-16q1-1 1 2c0 6 6 17 11 19h1l-2-2 5 3 4 4-3-4q-6-6-5-15v-3c2 12 3 13 6 16q3 4 5 4 3 0 5 3 7 6 1-2c-5-6-9-14-8-14l2 3 23 28-7-11-5-7 7 7c7 10 16 20 18 21l-1-3q-8-10 3 1 10 11 4 2l-1-3 3 3c3 5 20 23 20 23l-5-8-5-7 7 7 10 13-1-4q-7-12-18-22c-10-8-21-20-24-26q-6-8 2 2 7 9 19 19c10 8 13 12 19 20q4 7 4 5l-9-17-4-6 4 4c4 5 13 22 15 29q1 5 3 7 4 2 1-4c-3-6-8-26-6-25q2 0 2 5c1 6 5 19 7 21v-1c-2-9-3-21-2-26q1-2 1 6l1 10q1 3 2-3l4-9 2-6c-1-2 4-11 5-12q3-1-1 3-2 3-1 5l2-3 2-6c-1-1 6-11 8-12l-2 3q-6 9 4-1l7-6-6 6c-11 13-20 29-23 40q-2 11 2 3l8-9 5-8c2-6 8-15 11-19l10-8 8-7q8-10 8-21 0-7 2-7c1-1 0 12-3 18q-4 13-17 21-14 8-17 21-3 4 4-1l11-6-4 3c-6 5-16 15-19 20s-8 16-6 14l4-7q7-13 18-21c7-6 20-13 22-13l-3 3-11 6q-9 5-17 15l-4 5 6-6q23-18 35-20l7-1q6-1-3 5l-5 4 9-3q13-6 7-1-3 3 4-1l9-5c11-8 15-11 20-17l5-6-4 7-2 5 6-5 5-5-1 2v1l1 2-2-1h-1l-17 21c1 0 8-7 13-14l5-5q1 1 4-2l1-2q-3 3-1-1 5-4 4-1-2 3 1 0 4-3 1-2h-1c-2-2-8-5-9-4l-1-1q0-2 9-2l9-1q4-3 4 0 0 2 6-4l10-8 4-3-3 3-2 4 4-4 6-7 3-3-3 4q-2 5-13 14-4 2-3 4l-4 4c-5 2-14 9-14 11q-1 3 6-1t18-6q5-2 6 1l-4 1q-7-1-21 7-11 7-13 12l-5 8v2l4-5c3-5 17-16 20-16l7-1h4l-3 1c-4 0-16 6-21 10l-6 9-6 10-6 8-3 3 3-10q4-7-3 0-4 9-4 6l3-7 2-6-6 4-15 9h3l4-1-3 2-4 2q-1 3-12 0-11-1-17 1-2 1 1 1h2l2 1-2 2q-4 3-10 1l-7-1-4 4-12 15 4-3c3-3 12-8 12-7 0 2-12 12-17 14q-6 2-6 5-1 6 2 1 1-6 1 7-1 16 2 16v-1l1-1 3-4q4-9 9-11 3-1 0 5-5 11 1 3 5-5-1 3-3 5 3-1 6-8-1 3l-8 15q-6 13-9 9-1-3-2 0 0 3 0 0-2-3 3-15 1-3-2-3l-4-2-2-1q-2 2-2-9v-8l-6 7q-5 9-3 10 2 3-1 0-2-3-3 0l1 4 1 2-2-2q-1-3-3-1l1 3v2c0 1-12-13-12-15l-1-1-2-1q-1-4-4-4 0 2 2 3l3 5 3 5 2 3 3 3 1 3-6-6q-8-10-4-3l5 9-8-10-7-9c1 4 7 13 13 19q5 5 7 14 3 12 0 10-3 0 0 5l3 9 10 29-2-2-1-5q-3-3-1 1l2 7c1 4 1 12-1 15l-1 5q-2 10-5 7l-2-1v5c2 7 1 18-2 25q-8 13-2-2m-1-101-2-2q-3-3-1 0t3 2m41-23-1 1q-1 2 1 1zm-34-5c1-1-4-8-6-8l-1 2 2 1 1 1q-1 3 3 5zm33-3 1-4-4 7zm-30-1-1-3q-1-3-2 0-3 1-1 3 3 3 4 0m20-7q0-7-1-3v8zm-40 2h-2l2 2zm24 0v-4q-1-3-3 0-3 3-1 4 2 5 4 0m-15-3q-4-3-1 2 0 3 2 1zm7 3v-3l-2 1q-1 6 2 2m-18-2-1-1h-1zm15-2-1-4-1-1q-1 2 1 3 2 3-1 0-3-1-2 2 3 3 4 0m8-2q2-4 1-5-3-2-1 2 2 3-1 1h-2q-3 3 0 5zm10-3 3-6 1-3 2-3 3-2c4-2 9-8 6-8q-3 0-13 12c-9 11-9 11-8 13q1 5 6-3m-25 4c0-1-2-5-3-4v2q1 3 3 2m-7-5h-2v2h2zm9 2q-1-4-3-4v2q2 3 3 2m10-3v-3l-1-1h1l1-1h-2l-1 2 1 2h-1q-1-3-3 0 0 3 2 4zm-28-4-4-4c0 2 6 9 6 9zm37 1-1-3q-2-1-3 2v4h2q3-2 2-3m-26 2-1-1q-1-1-1 1 3 3 2 0m8-1q-2-3-3-1l4 3zm-14 0q-1-4-3-3v1l1 1 1 2zm9-1-1-2q-2-2-2 1l1 2q2 1 2-1m9 0-1-3q-3-2-2 3zm-7-3q-2-3-3-1l3 2zm17-3-2-2q-2 2 0 5 2 2 2-3m9 0 3-4-8 4v3l2 1zm-32 1h-2l2 2zm15 1-2-2v2l1 1zm-24-1-1-1q-1-1-1 1 3 3 2 0m18 0q0-3-3-2-1 2 2 3zm-12-3q-2-1-1 1h1zm5 1v1l1 1zm-9-1q-2-3-3-1l3 2zm19-1-1-2q-1-1 0 0l-1 2v1q2 3 2-1m-7 0-1-2-1 2 1 1zm23 0q1-2 0 0-3 0-1-1 1-4-3-6l-3 2 1 4q3 3 6 1m-28-1-1-1-1 1 1 1zm-5-1-1-1-1 1 1 1zm-5-1-1-1-1 1 1 1zm13-2h-2v2h2zm10-2q-4-5 0 2 2 4 2 2 1-2-2-4m20 4 4-6 9-10 5-7q0-2-11 11l-8 10-3 3 2-3q3-6-1-3-4 2-2 4 2 4 5 1m-37-3q-2-5-3-2l1 1 2 3 1 1zm-4 1-1-1h-1zm29-2-1-2q-3-1-2 2 2 5 3 0m-33 0v-1l-2-4-2-3v1l1 5q3 6 3 2m12 0-1-2-1-1q0-3-2-1 0 3 4 5zm-24-2v1l1 1zm29-3q-5-7-5-3l-1 1v1h1q2 0 3 2 5 4 2-1m-13-1-3-3q-2 0 1 4 4 5 2-1m53 0 2-3zl-1 2zm-50-1-8-9 3 6q6 7 5 3m-10-9q-3-5-4-3c0 2 5 7 5 7zm73-3q3-4-1-1l-1 2zm-92-6-4-5-5-3 2 3 5 5v1l2 1 1 1zm20 1-2-2 1 2q4 4 1 0m118 0q4-3-3-1-6 3-2 2zm-9 0h-3zm-17-4 3-3-3 2-5 2q-2 1 1 1zm-19-1 5-2c3 0 20-11 18-11l-18 10 2-3 3-3-5 3-9 8zm-88-3-1-2zl2 2zm10 2-2-2q-3-2-1 1zm-19-3c-1-2-12-10-12-8l13 10zm162-3h-1l-3 2h1zm-35 1q3-2 1-2l-4 2-1 1zm44-4v-1l-3 2v2zm-158-1-4-2 3 3 3 2q1-2-2-3m-15 2-2-2q-3-2-1 1zm148-1 3-4q3-3 1-2l-6 5-4 2q0 3 5 0m9-5 1-2-6 5q2 1 5-3m-163 1-4-3-3-2 3 3q6 5 4 2m176 0q2-3-1-1l-2 2zm-176-6-8-7q-12-8-8-4 4 3 1 2t0 1l4 2 7 4q9 7 4 2m-13-8 2 1q1 3-2 0m199-1c1-4-4 2-8 7l-3 5 5-5zm7 1q1-2-2 0v1zm0-5q1-3-2 0-3 2 0 2zm5-6 1-2-2 2-1 2zM668 889v-3l3-10 1-8v6l-2 11zm-68-29v-8q1-1 1 5-2 13-1 3m71-25-3-8c0-1 7 13 6 14zm4 2-5-13-3-6c2 1 7 12 9 18q2 11-1 1m-22-3c1-11 1-23-1-28q-3-9 1 0 3 4 2 16l-1 16q-1 6-1-4m-567 5h4zm-8-2h2l2 1zm-60-1 13-2 19-2c-6 2-34 5-32 4m656-18-13-23c2 0 19 29 17 31zm38-20q-7-2-4-3l1-1q-1-3-5-4t-6-4q1-4 5-3c1 1 10 1 14-1h5l-8 3-7 1h7q7 0 12-3 9-3-1 2-6 3-2 2l7-2 2-1q-1 3-13 5l-6 2h7l9 1q4 3 30-5l8-2-7 4-6 2c4 0 14-2 18-5l8-2q-1 1 2 1l-2 2-8 5q-6 1 1 1l10-2 8-1c6-1 20-11 29-23q4-6 2-1l-6 8-3 4 5-5c6-5 14-15 19-22q6-9 5-4c-1 5 3-1 7-9l4-8v-15l-3-30c2 0 4 13 4 27l1 14 2-7 1-3c0 5-3 16-7 23l-2 5 3-1 5-2q4 0 1-1h-2l2-1 13-5c0 2-7 7-9 7l-7 4-7 3-8 8c-11 13-27 28-37 34l-9 5 2-2 2-2-19 6c-3 2-15 2-23 0q-7-3-10-1l-7 1-8 1zm5-10-5-1q-8 0-6 1 3 2 11 0m60 0-3 1v1zm-115-1q-9-12-11-18-2-4 1-1l7 8c11 12 12 15 11 16q-1 2-8-5m0-4-7-9 1 3zm-94 3q-4-5-9-17l-3-7-1-2q0-3 2 0 3 2 5 6 4 5 1 3l-2-2 2 4 1 2q-4-4 0 5l6 8 1 2zm133-6-3-3q0-3 5 1l8 2q6 1 2 1-7 2-12-1m-81-2 2-7q3-9 2-3zm76-5 5-6-6 9q-5 5 1-3m136 3 6-2-3 2-7 2zm-220 0 2-4 4-14q1-14 1-3c-1 7-4 19-6 21zm-45-3-1-3c1-2-4-12-9-18q-9-10-15-12l-3-1c0-2 7 0 11 3s11 12 14 17c2 4 6 15 5 16zm79-1c-4-2-10-10-9-11l7 7q11 11 2 4m42 0 11-16-6 11-6 7zm-43-6-4-7q-2-3 1 0l2 3 3 5q4 7-2-1m-17-7v-11c2-2 2 13 0 18zm5 4v-2 5zm136 3 5-3 7-5 2-2c0 2-8 8-11 9zm-86-3 11-15-12 17zm-108-12q0-14 2-18 3-7 1 1zl-1 13zm220 11c0-4 7-22 8-22l-2 7-3 10q-2 8-3 5m-154-7-8-10-2-3 3 3q16 17 13 17zm148 5 2-6 1-3v3zl-2 3zm117-1h3zm-103-3 5-22-4 24zm-54-2-2-2q2-3 5-1l5-1-3 2zh4l7-1-1 2q-8 3-11 0m-183-1c-3-1-14-12-13-12l-15-30c1 0 14 13 18 20q4 5-3-1l-4-2 4 7c3 5 12 15 16 18q3 3-3 0m13-3 1-7q1-3 1 0zv5zm270 2 36-12c5-1 6-2 13-9l7-9-7 1q-9 2-12 7l-5 4 3-4 2-4-12 5-3 2-6 1h-4l4-2c10-5 18-13 9-8q-7 4-11 2-6-2 2-6 16-6 23-20l2-2q-1 4 5 1 5-1 10-8c9-10 9-10 1-8-16 5-18 6-19 10l-3 6q-6 7-1 3l3-2-2 2c-2 4-9 9-11 8q-1-2 3-5c5-4 9-13 9-16l2-8 2-5-4 6 6-7q-2 4 4 2c4-2 12-8 12-10 0-1-8 2-10 4q-3 2-1-1l7-3q11-4 7-5h1q4 1 1-5l-3-3-3 4-3 4c1 2-19 12-24 12q-8 0 0-2a46 46 0 0 0 27-17l-4 3-8 6c-4 2-13 3-13 2q0-2 5-2 8-1 20-12l4-3 1 1q5-1 2-3c-1-2-6-1-6 1l-1 1-5 2q-5 4-3 1 3-4-10-5-9 0-12-3-9-6-11-15-2-11 1-3 3 4 5 2l7-1q8-2-1-3l-5-2c0-1 6-1 10 1h1c-2-2-19-9-19-8v3l1 3c-1 1-12-16-14-20-2-5-5-18-5-24l-1-5-1 1c0 3-5 17-7 19l1-3 4-12 3-10 1-3 1-6q1-6 3-2 1 2 1-5-1-7 1-6 4 2 1-10-1-6-3-4l-3-1q-3 0 2-1 4 1 9-4l4-6v-2l6 15 6 16q2 1-4-21l-3-13 6 18 3 8c1 0 0-7-2-12q-4-11-1-5 4 7 1-5v-6l-1-6-2-6 2 4q5 9 3-4l1-8h3c1 1 0-7-4-15q0-4 4 1 4 4-2-8-4-9-17-25l6 6q8 10 3 1l-2-7-1-4-1-7-2-13-3-14q2-2-2-6l-4-4 3 5q5 10-3-2-10-16 0 3 7 16-2 0l-3-6-1 10q-2 20-8 32-3 7-2 10c1 5 7 16 12 22l3 5v1l5 3 4 3-5-3-4-2 9 11q3 0 0 0c-2 0-12-7-15-11-5-7-11-23-11-31l3-8c4-10 6-18 6-32 1-14 0-16-6-42l-3-10-1 10-1 13 3 10q6 20 1 42l-4 17v21l-6 23q-3 3 2 7l8 5 6 2h-7l-9-2c-6-3-15-13-18-19q-6-17-4 2 0 24 8 31l4 3h-4l-8-2c-9-2-19-25-17-41q2-15 2 2 0 16 8 27c3 4 10 11 12 11l-2-3-3-9c-2-7-3-33-2-40 1-6 8-22 8-20l-2 6q-3 9-2 20 4 15 14 25l8 6-1-2c-11-8-18-39-13-59 2-6 2-7 0-11l-2-11v-1l10 27 6 14q2 8 2 4 0-5-7-24c-8-20-8-30-1-65 4-20 5-34 4-50l-1-9v7l-3 16c-2 7-7 23-8 22l3-12q9-21 5-34l-2-7v-1l3 5 1 4v-8l-2-15-2-7c1 0 4 10 5 19l3 24c1 18 0 26-5 49a153 153 0 0 0-3 45l3-15 5-17-4 22q-4 23 0 5 6-20 5-29l1-13 2-25q0-28 2-5 2 21 2-9c-1-17-1-21-4-31l-2-12 5 12q5 14 0-3a128 128 0 0 0-22-46l-6-8q-12-12-10-19 0-4-4-10l-3-7 6 3 6 4-6-5-7-8q-2-7-12-16l-7-6q0-2 6 3l4 3c0-2-4-9-7-11-4-4-14-10-18-10q-5 0-2-2l6-2 6-1-4-2-6-1-4-1 15 2q12 4 4-1-10-5-21-5l-6-1-4-1-4-1 4-1c6 0 14-2 14-3l-7-1q-12 0-12-3-1-3 10-6l6-2-7 1-20 5c-19 6-20 6-15 2l2-3-2 1-2 1-1 1-1 1h-3l-2 1 1-2q5-2 0-2l-5 2q-3 3 0 1 6-4 2 0l-4 2h-2c-1 2-16 9-18 9q-2 0 0-1 3-2-1-2l-4-1h5l8-2q7-2 2-3h-9l18-4 2-3-7-3q-8-2-15-1l-7 1h7l12 1q4 1-11 1l-15 1-2-1 3-1 3-1h-6q-5-1-2-2 3 0-1-1-7 0 8-2h9l-5-1-6-3-7-1q-5 0-3-1c3-1-6-2-18-2q-13 0-9-1 4-2-2-2l-3-1h-1l-25 4-4-1c0-1-11 1-16 4l-3 1 2-2q4-3-4 0l-19 9q-1-1-9 4l-3 1-4 3q-6 6-3 2t0-2l-16 16q-7 7-9 7l-1 2-1 3q-3-2-3 1l-1 2v1l-1 2q-3 4 0 6v-1l2 1 3 3 1-3v1l-2 13c-7 21-15 30-43 49l-19 14-16 10-20 15-20 17q1 4 9-4 6-6 6-4 1 2 8-4l10-9q6-4-3 5l-17 19 6-2 11-9-6 6q-8 8 2 1 6-4 1 0l-4 3 4 1q2 1 9-5l7-4-1 1-11 8 4 2 8 7 5 5-2 5q-1 6-7 10-4 5-6 5-5 0-1 6 4 7 3 3 0-2 1-1v2l3 5 4 6-10-12-2-4-3 4-4 6q-5 2 1 8 4 4 4 2h2l2 1h2l2 1-4-5q-9-9-3-5 3 3 1 0-3-6 0-2l1 4v1l1-1h2l1 3-1-1q-3-2-1 1 4 6 9 6l13 2c14 3 15 3 16 2l4 1 15-1 16-2q10 0 28-9c15-8 32-11 31-6l-2 2q-2-1-1 1t-2 2q-2 0-2 2c1 1-7 3-11 2q-4-1-10 3l-3 2h12l3 1h-4q-4 0-3 2 2 1-1 1l-3 1 2 1v1l-15-3-3 1q-3 3-2 0 3-3-5-1-7 3-3 4l2 1-4-1c-3-2-3-2-11 0q-9 3-7 4h-2q-9-1-1 2 8 4-3 1-14-4-1 2l1 1-6-2-8-1q-3 1 3 2l5 1h-9l-9 1h2l3 1h-19l-8-2-5-2q-4 1 1 4l5 4 1 1c0-2 5-2 7 0 1 2 9 4 11 4v-1q0-2 2 1l3 1-1-2-1-2 2 1 4 2 5 2q2 0-2-3l-3-3 8 4 13 5 5 1h-11c-12-1-26-2-30-4h-3q3 3-5 0-14-6-14-13l-4-2q-9-1-9-8 1-5-4-5-8-4-14-14l-13-23c-8-9-8-14 2-25l8-9 6-6 14-11c8-8 19-16 21-16l21-14 38-30c4-5 4-6 4-12v-6l-3 1q-5 0 0-5c4-4 9-15 9-17v-5q-3-3-1-3l1-2h1l1-2q-1-3 2 0 2 1 1-2v-1c1 1 11-11 15-17l3-5-1 3q-3 8 2 0l5-6q-2 4 6-3l8-5 8-3c10-6 23-11 17-7q-4 3 8-2 11-5 9-3-1 1 1 1l21-3-1 2h2l32-4-5 1 6 1 11 1h4q0 2 5 2l14 4q-5 1 4 2 19 3 21 6 3 3 7 3l4-8q4-9 3-3l-3 8-2 4 3-4q6-5 1 1-3 7 4-2l5-4-3 5q-8 7-2 6l9-9 8-9-8 16-3 3 6-2c9-5 22-9 14-4q-6 3 5-1c8-2 21-4 24-3q2 1-6 2-18 2-6 2 22 1 4 4c-7 0-19 3-15 3v2q-6 1 9 2h12l5-3q13-6 3 1l-4 3-2 1-14 5q12 0 27 9l13 6q8 4 9 6v2l-1-1c0-1-9-6-16-8l-13-2h-5l6 3c6 3 14 9 13 10l6 7c6 6 13 15 12 17l-4-4c-3-5-15-16-15-15q-1 1 2 3l9 15q6 11 10 14 9 8 19 8 5 0 2 1-4 3-17-2l-6-2q0 2 9 12 10 12 2 4l-5-4q-3-2 0 2c5 8 12 17 15 19 5 3 14 13 14 14q0 2-5-3c-6-6-14-12-14-11l5 6q17 21 21 39l1 5 2-7c3-10 14-33 27-58 6-13 16-32 20-43 10-22 17-35 25-47q12-16 0 3a261 261 0 0 0-28 56q-3 8 7-11l16-28 3-2-2 2a1005 1005 0 0 0-46 89c-5 6-22 43-24 50v4l-1-3-8-22-1-1q6 15 7 32l4 16 1 3 1-3v-6c-1-5 0-7 7-24a370 370 0 0 1 54-94c-17 21-37 54-35 58q1 4 6-7l7-11-3 6c-8 16-8 15-6 20l1 4 6-10 13-20-12 20-6 12 2 6 3 7 4-6 13-19-10 15-6 11 1 5 3 4 3-4 3-3-3 4-3 6 4 8 5-9 8-11-5 9-8 13 3 7 4 7q3-3-4 11-5 7-4 9l-1 2q-1-1-4 5t-1 8l2 4q2 0 6-10l7-11-4 9c-6 11-12 25-12 27 0 3 6 12 7 11l2-3 4-8q-8 18-3 13 1-3 1 1-1 2 1 6 4 7 0 1l-2-3-2 5q-3 6 0 9l2 4a81 81 0 0 0 9-24l2-4h2l-3 6 3 5 4 5 3-8 12-23-7 15-7 15c0 2 5 11 7 11l1-2c1-3 10-22 12-23l-6 12-6 14 2 5 2 2 4-9 6-11-4 9-5 12q2 5 5 6l1-3 2-3-3 8-3 9 3 3 2 3 3-9 8-17q6-12-1 5l-7 16-2 6 2 3 3 3 4-9 5-10-2 4q-6 17-5 18l-1 1-2 4v7q2 7 7-7c4-11 9-25 10-24l-4 11-7 18-2 7 5 5 5 4 2-5 5-13-2 8a245 245 0 0 0-11 44l3-20 3-13-5-4-5-4-1 3-1 4 3 5 4 5-4-3-4-4-2 6-1 7 4 3q5 6 0 1l-4-3c-1 0-2 10-1 12v1q-2-1-2 2-1 4 5 9l5 5-6-5-6-6 5 6 9 11 5 5 1-13 5-36 12-40c-3 10-8 26-7 27l2-6 4-7q0-1 0 0l12-24a325 325 0 0 1-28 100l-1 3-3-3q-2-3-3-2l-3-2q-7-4-3 0l2 3-3-3q-7-5-4 0 3 2 2 3l-4-3q-6-6-5-2l1 1-3-2-4-2-3-1h2q3 1-1-3l-5-2-3-1 2 3 3 2 1 2q-1 2-4-2-4-5-7-5-4-2-2 1l3 3 4 1-2 1-6-3-5-4q-4 0-1 2l4 2q3 0 0 1t-5-2l-4-2 1 2 1 2-2-1q-6-5-8-3 0 3 20 9a98 98 0 0 0 34 7c2 2 17 5 27 6l12 3h8q8-3 8 0l-5 1-6 1h-5l-9-2q-14-1-29-5l-13-2-19-5-28-7-2 8-5 22q0 3 4-1 2-2 4-1l2-1q-1-1 1-1h5l4-1 3 1 1 1q1 2 12-1l6-2q3 1-2 3l-4 3 9-3q9-3 11-2 3 1-3 3l-6 3 4-1 8-2 6-1h1l-2 2h7l15-2 17-1h25l-12 1c-12 0-23 1-23 2l2 1 3 1 9 1 8 1h-47q3-3-1-1l-21 3q-9 0-18 5-4 3-5-2l-6 1-6 3-2 1v1l16-2 10-1q11-2-5 2-9 3-12 1-3-1-10 3l-8 3-5 1q-7 2-4-1l10-7 1-2c-1-1-12 7-13 9l-2 2-1 3q0 5-2 5l-1 1c0 2 5 11 7 12s15-2 17-4q3-2-2-1h-9q-7 1-2-2l6-1 9-2q5-3 8-2l7-2q8-3 13-1c4 2 4 2 8-1q6-3 11 0h6l10-1 7-2q3-1 2 1t2 1l4-2-1-2h8l-2 1-4 2c-3 2-13 3-17 2l-5 1q-6 3-11 0c-3-2-3-2-9 1q-9 5-9 2l-5-1q-8 2 0 2l2 1q0 2 36-1l66-1q3 1-14 1-20 1-7 1l9 2h-21c-23 1-28 1-28 3l32-1h14q3 1-8 2c-12 0-23 2-24 3q0 2 4 3 3 1 0 1-2 1 1 2l2 2 2 3 8 10 8 10-8-9q-10-12-13-8-3 1 4 8l6 8-12-13c-2-2-2-2-8-2l-6 2 1 3 5 2 1 1q-3 0-2 2 0 3 8 2l7-1-6 2-6 1 2 2c2 2 2 2 9 1l12-1q4 1-6 2l-11 2 3 6 4 6-1-2q-2-3-7-1-11 2 1 3l5-1-5 2-5 1 2 3 9 1 7-1-5 2-18 2c-12 2-12 3-16 7l-4 4 14-2c14-2 15-3 18-6l2-1-3 3h9l11-2q3 2-13 3l-9 2-6 7-6 7 13-2 16-2q6 1-1 1c-6 1-6 1-14 11q-6 6-4 6l10-1 8-1-11 2-11 2-5 5q-5 6-2 6h-1q-2-1-9 8l-8 8h8q21-5 3 0l-13 3-6 7q-10 10 0-2l3-4-9 1c-8 2-8 2-15 8l2-4 2-2-6 2-7 1-6 4q-8 6-2 0l3-3-12 4zm54-16c5-1 6-2 12-9l6-8c-1-1-13 2-14 3l-13 16zm19-4c8-2 8-1 17-13l3-4-10 1-7 2-8 8q-7 9-4 8zm-39-6c6-2 7-3 11-7l4-6-5 1q-6 0-13 8l-5 7zm-10-3 8-5q1-2 11-5l9-2 6-8q6-7 5-8l-6 2q-6 1-10 6-5 6-2 1l3-4c-1-1-8 3-9 5-4 7-18 17-24 17q-3 1 0 3 2 1 9-2m28-2c6-1 7-1 12-7l4-6-8 2c-7 2-8 2-13 8l-4 5zm16-3 6-1 9-11h-6q-5 0-10 7-9 8-4 6zm33-10 4-5h-9c-9 2-9 2-14 7l-5 5 10-1c9-1 10-1 14-6m-40 0 7-1c2-1 15-14 14-15l-8 1-8 2-6 7q-9 10 1 6m24-5 12-14-5 1c-6 1-7 1-16 12l-3 4 5-1zm13-1 10-2 7-7 7-8-19 3q-4 0-10 8l-5 7zm-38-7c6-2 7-2 13-9l6-8-13 4-13 14zm18-4q8-1 12-7l6-5-5 5-4 5 6-1q6 0 10-6l7-7 2-3-4 1-15 2-11 3-7 7-6 7zm-24-8c12-4 14-5 18-10l1-2-7 1-25 8-1 4q-2 5 1 3zm32-11 4-4h-7q-7 1-10 6l-5 4h7q8-2 11-6m-7-4 10-2 9-2q5 1 0-3-1-3-6-2-6 2-4 4l1 2-2-2q-1-3-5 1zl-1-3c-2-3-1-3-9-1q-7 1-11 5l-4 4 11-2zm3-6q-3-1-4 2h3zm-9 0 1-2-6 1-2 1h-1zm39 0q1-1-1-3-2-3-8-1l-5 1 2 2q1 3 7 2zm-29-3-4-1q-5 1-3 2c1 1 8 0 7-1m-15-2q3-2 1-4-1-3-4-2-5 1-2 5 3 6 5 1m3 1 1-1-3 1q-1 2 2 0m22 0 2-1q0-3-6 0h-3q0-2 0 0t2 2zm-12-2c1-1-3-6-4-6l-3 3q-3 2-1 3zm26 0v-2c-2-1-11 0-11 2l6 1zm-15-3-2-3q-3-4-9-2l-3 1 3 3q2 5 7 3zm-33 0-1 1v1zm15-2q3-2 0-2-7 0-4 3 1 3 4-1m27 2q6 0 1-5l-2-2-3 4q-7 5 4 3m-4-4q5-6 0-4l-5 1q-4-1-1 3 1 4 6 0m17 2 3-2-2-3c-3-3-3-3-8-3l-5 2q-1 1 2 3 1 5 10 3m-60-4q3 0 0-3-2-3-6 0l-3 1 3 1q3 0 2 3 0 3 2 0zm21 0-1-2-5-1q-5 1-3 4c1 1 8 0 9-1m6-3 3-3-4 1q-6 1-4 4 2 4 5-2m-19 1-1-3q0-2-3-1-5 1-3 3 1 2 4 2zm24 0q-1-2-3 0-3 1 1 1zm8-1 8-1q11-1 7-4-1-3-6-1-7 0-5 3t-1 0q-2-2-6-1l-5 1q0 3 3 4zm-47-2 5-1-2-3q-2-3-6-1l-3 1 3-2 3-2q-1-3-4-3l-5 1-5 1-5-2q-10-4-4 5 2 5 5 6l-1-1q-5-5 1-2l11 5zm-7-8h4l-3 1q-3 0-1-1m29 9c5-2 1-5-4-4l-4 1 4 4zm11-2q4 0 1-4h-5q-6 1-4 3 2 3 3 2zm-23-2v-3q-3-3-5-1-3 1-1 3 3 4 6 1m32-1 1-3h-7v3q2 3 6 0m-22-1q1-2-1-3-2-2-6-2-6 2-2 4 1 3 5 2zm26 0q0-2-3 0-1 1 1 1zm13-1q1-1-1-3h-6q-8 1-5 3l7 1zm-28-1-1-3q-2-4-10-1v3q2 3 6 2zm-25-2q0-3-4-4-3 0-1 3 0 3 3 2zm35-1q2 0-1-3-1-3-6-1l-5 1 2 3q1 2 5 2zm-27-2v-2l-5-1q-4 2-2 3 2 3 7 0m41 1q1-1-1-2-2-3-2 0l-2 1 1-2 1-2-11 1 1 3q2 3 8 2zm-65-1q4 0 1-1l-6-1q-6 1-2 2 3 2 7 0m33-1q4-1 2-3-1-3-6-1-7 1-3 3l2 2zm-23 0 2-2q-1-2-4-1h-3l-2 1q0 3 7 2m11-4v-1l-5-1q-4 2-3 3h5zm26 1-1-3-6-1q-6 1-4 4l6 1zm-39-2 1-2q-2-3 1 0h5q4-1 2-3l-1-1-5 1-7 2q-2 0-2 2 2 3 3 2zm50 0v-3q-1-3-6-1-7 1-4 3 1 3 10 1m-27-1v-2h-4q-7 1-5 2zm41-1 3-1-3-2q0-3-7-1l-6 1 1 2c2 2 3 3 12 1m-32-1q5-3-3-2-6 1-4 2l2 1zm-12-2q1-1-1-2h-6q-5 1-2 2 1 3 5 1zm55 1q1-1-1-3t-6-1l-4 1 3 2q1 3 5 2zm-78-2-3-1q-6 2-3 2c2 1 7 0 6-1m46 1 3-2-9 1q-1 2 6 1m-37-3c-2-1-8 1-7 2zm24 1q3 1 1-2l-6-1q-6 1-4 4zm14-3q0-2-6-2-7 1-5 4h6zm16 1h-5l-6 2h4zm-60-1 9-3-8 1zm16 0h-6l-3 1zm-39 1-1-1h-1zm91 0q5-2-2-2l-4 1q2 2 6 1m-75-3 7-3-18 3-2 1h2c3 1 2 2 11-1m64 1v-2h-9q-4 0-2 2l6 1zm-34 0h-3zm4-1h-2zm41-1q1-2-7-2-4 0-2 2c1 1 8 2 9 0m-33 0h-3zm-21-1h-2zm25 0h-2zm15-2h-9l-3 1zm-36 1h-2zm22-1 9-2 1-1-15 2q-13 4 5 1m-18 0h-2zm42-1q2-1-4-1-5 0-5 2zm-37 0h-2zm-35-4-2 1v1zm13-2h-4q-3 1 1 1zm-14-1 3-2-3 1-3 1q-2 2 3 0m13-1 1-1-10 3zm-42-8 1 1zm0-9-1-3v4q-1 5 1 4zm27-6q3-3-3 1l-7 4q-4 3 3 0zm-11 1q3-3-2 0l-7 4c0 1 7-2 9-4m-15-3 1 1zm13-2q3-3 1-3h-1l-3 4q-3 4-1 3zm-17-2q-1-3-1 2-1 4 1 2zm6 1v3zm45 1-2 1v1zm-42-5-5-14c1 7 4 17 5 17zm17 1 1-1-2 1q-3 2 1 0m40 0-2 1v1zm49 0h-2zm-102-7c-1-5-10-24-10-23l2 11 4 14q2 6 3 2zm27 5q3-2 0-2l-3 2-1 1zm65 0q13-1 3-2-11 0-12 2l1 1zm-110-3v3zm7 0v3zm-3-1-1-2v3l1 2zm11-20-5-14q-1-1-2 2l5 14 5 13q1 4 2 1 1-4-5-16m9 11-4-17c-5-14-5-15-7-13l-2 3 6 15 5 15q1 3 1 0zm-17-2 1 1zm83-12-36-37 18 19zm-5-1-6-6q-1 1 2 3zm-6-2q-1-3-4-3l1 2q3 3 3 1m-41-3-1-1v-2q0-2-1-1l-2-2-3-3v5q0 5 3 5h4zm29-6-6-3q-4-1 0 3 2 3 8 3zm4 1-2-4-1 1 5 5zm4 0-3-3 1 3 4 2zm-16 0-2-2-4-5c-1-3-6-5-7-4s4 5 6 5q3 1 0 1v3q0 2 7 3zm-14 0-3-3q-3-4-2-1 3 6-3-1l-4-6 3 2 2 2c1-1-5-9-6-9l-1 6q0 7 5 10zm6 0q-1-4-5-5h-3l2 3zm11-6-6-4q-4-1-1 3 6 3 7 1m4 0-2-2q-3-2 0 1 3 4 2 1m-21-3-5-3q-3 0-1-1 3 0 0-3l-4-3q-3 0-1-1 3 0 0-2-2-3-2 1-1 2 2 5l3 4q2 5 8 6h3zm24 3-1-2q-3-2-1 1zm14 0-11-10 6 5zm1-9-2-3-1 3q-1 4 2 6l3 3v-3q1-4-2-6m-27 4c0-2-8-8-9-6l6 6zm5-1-2-1-2-2 1 3q4 4 4 1m-15-3-3-3-1-1-4-6q-5-7-6-4-2 4 1 4l2 2q0 3 2 3l2 1c-1 2 4 6 7 6h3zm31-7-4-2q-2 3 2 9l3 2 1-3zm10 3q1-5-2-8l-2-3-2 5q-1 6 2 8l2 2zm-19-1q-5-6 1-2l2 2 1-3q1-4-2-6l-3-3-1 5c-1 5-1 5 1 8l3 2q1-1-2-3m-18 2q-1-5-6-6c-6 0-1 5 6 6m4-2-4-3 1 3 4 2zm26-5-3-4q-2-3-3 0l2 5q3 4 4 2zm-32-2-3-2 1 3q6 4 2-1m-7-3-6-6v2q0 3 2 2 2 1 0 1-3 1 1 4l5 2h3zm24-2-1-4q-2-3-3 0-2 4 1 8 2 3 3 1zm25-1 2-11q3-5-1-7l-2-3-1 5v6q4 5 0 2l-2-2-2 6c-1 6-1 6 1 9l3 2zm-9 4-3-4-3-3v2q2 6 6 7zm-8-1c0-2-3-7-5-7q-2 2 2 6 3 4 3 1m-13-6q1-4-2-5l-2-3 2 1h3c1-1-3-8-4-7l-1 3-1 7q-2 3 1 5l1 3-1-1q-5-4-2 1 5 5 6-4m-28 3 1 1zm12 1-2-1-1-2-1-2-3-2q-2-3-2 0l4 5q5 5 5 2m4 0-1-1q-1 1 2 2zm35-7 7-20q3-9-1-12l-3-2-1 3q-3 8 0 11l2 3-2-2q-4-4-4 3-1 4 1 6l2 3-2-2-2-2-2 6q-3 8 0 9l3 2zm-9 4 2-9 3-7-3-3q-2-6-5 5-2 5 1 6 4 5 0 2-2-3-3 0l4 7zm-9-5-1-3 1 1q3 3 3 0l-4-7-1 5q-2 5 1 7l2 1q1-3-1-4m-86 1q7-22-4-43l-4-8-1 5c-2 8-1 26 1 35l7 14zm69-2q-2-5-4-5l-1-1-3-6-4-5 2-7q3-9-1-14l-2-2-2 6v18q2 5 3 3v1q-2 3 3 7l4 3 4 4q7 7 1-2m6-1q1-3-3-9l-4-5-1 4-2 4 1-5q1-5-2-8l-3-3-2 3q-1 3 2 7l12 15zm-17 0-1-1zq4 3 1 0m76-1 1 1zm-75-2-2-2zl3 2q1-1-2-3m-32-1-4-5-2-4-3-6-4-3 4 6v1c-1 1 8 12 10 12zm64-15-2-2-2 6c-2 7-2 6 1 9l2 2 2-6 1-6zm-9 8-3-3c-1 0-1 5 2 7q3 3 2 0zm-6 3-3-7q-4-6-5-3l4 8q4 7 4 2m11-12q0-4-2-5l-2-3-2 6-2 7 3 2 2 2 1-2zm13-2q-3-5-4 3-1 4 1 6l3 2 1-4q2-4-1-7m-26 2q-4-7-4-4-1 2 3 7 4 6 5 4 1-1-4-7m-7 0-2-6-3-4v3q-1 3 2 6 3 6 3 1m13-3c2-6 2-7-3-12l-3-4-2 6-2 5 4 5 4 5zm15 0q2-2-1-6-3-5-4 3-1 3 1 6 3 4 4-3m10-4c1-5 1-5-1-8q-3-6-5 4-2 4 1 7l2 2zm-37 1-2-6q-2-4-3-1-1 1 2 5l3 4zm20-10-2-3-1 5q-3 4 1 7l2 3 1-4q2-5-1-8m-34-5v-1q3 0 0-8-2-5-3-2v5c-1-1-4 10-4 13l3 4 2 3 1-6zm45 7c2-5 1-5-1-8q-2-6-5 5-2 5 1 6l2 2zm-28-2c2-5 2-5-1-9l-3-4-1 4-2 7c0 2 5 8 6 8zm13-3c0-1-5-10-7-10l-1 4c-2 4-2 4 2 9l4 5 1-3zm-24-1-3-5q-2 1 2 8 2 5 3 3zm33-8q-2-7-5 3c-2 5-1 5 1 9q2 2 4-4zm-86 0q1-9-2-16-2-6-1-8l5 16v3l1-3a92 92 0 0 0-2-41l-2 10-5 19-4 13 3 8 4 9 1 3 1-3zm40 8 2-9c2-6 2-7 1-11l-3-4-2 11q1 3-2 2-3-2 1 4 5 7 0 4-3-1 0 3 3 5 3 0m20-15 2-6-2-4-2-4-2 3q-3 7 0 10l2 4-2-3-2-3-1 4q-3 8 1 12l2 4 1-6zm35 3q-2-4-3 0-4 6 0 9l2 3 2-5q2-4-1-7m-14 4 1-5-3-5-4-5-1 3q-4 9-1 11l3 5q3 5 5-4m-13 0q2-3-2-7l-3-5-1 5q-3 5 1 8 4 8 5-1m22-5v-6q-4-4-4 0-3 6 0 9 3 5 4-3m-36-11q3-11-1-5-3 7 0-2c1-4 1-4-2-10q-2-6-4-7-2 1 2 9 4 11 0 2-5-7-5-1c0 3 4 11 5 10l2 2 1 4 1 2-2-2-4-7-3-5c-2 0-3 7-1 12q3 7 4 1l1-2-1 4q-2 5 1 8l2 3 1-5zm17-5-4-3-2 6-2 5 4 4 3 5 2-6 2-6zm14 9q2-3-2-9l-4-5-2 5c-2 4-2 4 1 8q5 8 5 5zm-46-9q2 2 2-3 2-4-1-7-2-5-3-2-3 4 0 7 3 4 0 3l-1 2-2 2q-3-1 1 7l2 4 1-4zm37 0c2-5 2-6-1-12l-3-4-2 4-2 5 6 10zm-16-12v-3c-1 0-4 7-4 10q1 3 4-7m-3-1q4-4-2-10l-4-6-1 4q-4 3 2 10l3 6zm-23 2-1-2q-3 0-1 3 2 1 2-1m11-4 3-10 3-5-3-4-2-4-1 2q-3 5 0 9l1 4-2-3q-2-4-3-1l1 6q5 7 0 1l-2-3-1 3 1 6 3 4zm-12 0q5 0-3-3l-5-2q-3-2 1 4l3 2zm0-10q-3-6-4 0-2 3 3 4l3 1zm6 3-3-9q-4-8-4-3-1 2 2 9 4 8 5 3m-10-8-2-6-2-5-2 5c-2 7-2 8 1 11l3 2 1-2zm9-7q-3-7-4-4l3 9q3 8 4 4 1-2-3-9m-427 7-1 1v1zm411-6 2-7-2-4-3-5-2 5c-2 5-2 5 0 11l3 6zm-7-3c-5-13-6-19-7-33l-1-18c-1-5-1-4-1 11q1 36 9 44l3 4zm29 2-2-9-4-5-1 4q-2 2 2 9 4 9 5 1m10-10-3-4-2 6q-3 6-2 7 4 9 6 0c2-5 2-5 1-9m-459 9 5-5-8-2-7-1-3 4q-6 6-2-1 2-3-1-3c-5-1-9 6-5 11l8 1q6 0 13-4m436 1-2-6q-2-6-3-2l2 7q3 7 3 1m3-5c0-2-4-11-5-10q-2 2 1 8 3 5 4 2m14-5 2-6-3-6-3-6-3 6-2 6 3 5 3 6zm-30-7-2-7q-3-4-2-7v-6q-4-15-4 5l1 11 1-3 1-1-1 5 1 8 2 5 2-4zm6 1q-2-6-3-3l2 7q2 6 3 3t-2-7m-453 6-3-6q-2-5-8-7l-6-2 2 4 4 5c2 3 13 8 11 6m465-10-3-5-2 4q-1 4 2 7l2 5 1-4zm-462 6-4-7q-2 1 1 5zm454-4-4-9q-2 2 1 9 2 5 2 3zm26-6 3-5-3-6-4-6-5 11 6 12zm-13 0 2-6-2-4-2-5-2 6c-3 5-3 5-1 10l2 4zm-21 3-4-10q-2 0 1 7t3 3m11-3q2-3-1-8l-2-4-1 3q-2 3 0 8l3 4zm-8-3c1-3-2-12-4-12v10q3 7 4 2m13-8 3-5-2-4-3-5-3 5q-3 6 0 10l2 4zm-458-2h-2l-2 1-1 3q0 3 2-1zm484-1 4-8-3-7-3-7-5 8-4 9 3 6 3 6zm-35 0-2-6-2-5-2 4q-1 3 1 9l3 5 1-3zm21-10-3-4-5 11 2 5 2 5 3-6 3-7zm-477 15q-1-3-3 0h1q1-1 2 1m-5-3-1-1-2-1h-2l-1 1 3 1 1 1q3 2 2-1m452-3-1-6-1-3-1 3c-1 4 0 11 1 10zm13-7 2-5-2-6-2-5-2 5-3 6 4 10zm-457 1q-1-3-2-2l-2-1q-3-2 1 3 3 5 3 0m10 1 2-3-2 1-4 2-2 1q0 2 6-1m459-15-2-4-3 6-3 6 2 5 2 4 3-6c3-6 3-6 1-11m-467 12q0-2-1-1l-1 2 1 1zm445-1v-6l-1-4-1 3-2 4c-1 1 1 6 2 6q2 0 2-3m34-6 4-8-2-4-2-5-2 3-4 8q-4 6-1 10l2 4zm-512 5-2-1-1 1 2 1zm24 0-2-3q0-3-1 0-1 2 3 3m451-10v-5c-2 0-4 9-3 11q1 2 2-1zm-444 5 1-2zv1zm453-10-1-5-1-3-2 6q-4 6-2 10l2 4 2-5zm10 6 3-6-2-6-3-7-3 7-3 6 3 6 2 5zm-466 1-1-2 8-7-5 2-5 5q-4 1 1-5 6-5 2-3-1 0 0 0l2-1 3-2q3-2 0-2l-3 1-1 1-5 3q-5 5-5 2l5-4q5-2 3-3l-5 3q-5 5-5 2l3-2 2-1-4 1-6 2q-4 1-1-2l1-2-3 2-3 2c-1-1-7 5-7 6l4 3 10 1h8l6 1q4 0 1-1m-8-4 7-6v1c-1 2-7 6-7 5m487-4 4-8-1-4-2-4-3 4c-6 12-6 12-5 16l2 4zm-506-2c0-1-5 5-5 7l3-3zm480-9q-1-4-3 4l-2 8c1 3 6-8 5-12m9-7-1-3-3 5c-3 7-3 8-1 12l1 4 3-7c2-7 3-7 1-11m16-2-2-7-2-4-4 8-5 9 3 7 2 6 4-8zm-467 15-1 1q2 2 2-1m-23 0-2 1v1zm-2-6-1 1v1zm7-1 1-3-5 5zm464-4q3-9 2-10c-1-1-5 9-6 13l1 2zm12-9c4-8 4-9 3-12l-2-4-5 9c-3 8-3 9-2 12l1 4zm-4-9q5-10 4-12-1-4-5 7-7 13-4 13zm-60-37-8-13q-4-7 0 4l13 16zm-314-39q0-2-3 1l-1 3q1 2 3-1zm2-6-1-6-2-4-6 10h3l3 1q5 3 3-1m284-22-5-3q-5-3 1 2 7 5 4 1m-62-42 2-3zl-4 5q-2 3 1 0zm-42 0h-2zm-81-13h-2zm25 628v3zm18-4-11-19q-2-5 4 5l6 10 6 9zm-23-5-4-20v-1c2 2 7 27 5 27zm-47-4 1-11v7q-1 19-1 4m-4-1-3-6c-3-6-13-22-17-26q-9-9 1 4c6 7 13 19 12 19l-7-10-8-10c-1-1 4 9 10 17l3 5c-5-4-14-19-19-30l-4-5-7-7q-6-8-9-8l5 7 14 20c-3-3-15-10-16-9l11 15 4 5q0 3-3-2c-4-4-19-14-19-13l3 5q6 10 2 5c-3-3-17-11-18-10l-4-2-18-7 1 2 1 3-2-3c-4-5-2-4-27-13l3 5 4 5-6-6c-5-5-6-6-15-9l-9-2 5 6 4 5-7-7c-5-6-6-7-14-9l-8-2-2-1-8-3-4-2 9 1c3 2 17 8 18 7l-3-4q-3-4-10-6-6-2-8-1l-2-1-2-2h-1q3-1-8-12l-5-7-4-2h-1q6 1 2-3l1 1 8 4h5l-7-9c-7-7-8-8-12-9l-5-1 4 5 1 3-5-6c-2-3-4-3-16-6l-12-3 9 2h10v1l3 1q2 0 1-1h1c2 2 3 3 11 4l12 3q14 3 9 0l-1-2 3 3 7 3 25 6-6-3 7 2 6 2 4 3c3 2 17 8 20 8l-3-4-12-7-9-2-2-1c-2-3-61-22-67-22l-4 3-4 2 3-3 3-3v-1l6-3q4-3 3-4c-3-1-24-6-26-5l-6 4-4 3-4 3-5 3 11-9 6-5q-1-2-7-2-7-3-10 0l-1 1 1-3 1-1 9-4 6-4-5-1-2-1h5q3 1 7-1c9-5 9-5-5-8l-11-3-8 5v-2q8-3 3-4h1l9-3 5-3-5-1-3-2 6 1q3 2 8-1l5-3-9-3-9-1-6 2-5 3 3 1q8 1 0 1-6-1-10 2l-6 3-4 3 20-13q5-1 3-3l2-1c3 0 12-4 10-4l-9-2-8-2 7 1 10 1 4 1-9-3q-16-3-14-1l-1 1-1-1 2-1-2-1h1l5-1 5-2q7-2-9-5l-44-7q-13-2-18 1-3 0 0-1 3-3-2-1l-7-1h11l23 2 32 2-40-9h11v-1l-33-6q6 0 4-1a471 471 0 0 0-256 41l10-6 14-5 17-7-26 7q-10 4-6 1a1026 1026 0 0 1 107-30l-4 1h6l18-3 55-5 32 1h32v-5l1-9 2-10 3-11q3-6 4-15l1-10 5-5 9-7 20-11-9 7-16 12-7 5-1 11-2 15c-2 5-2 5 0 8l1 3v-3l1-4q1-3 1 2 0 10 3 14l2 3v-11l1 4q1 10 8 10 2-1 2 2 3 4 4 2c0-1-7-16-10-19l-2-1-1-3-2-9q-2-13 1-20c2-5 14-17 18-19l9-5c8-6 38-15 40-12l-4 2-13 3-12 4q-13 3-24 23l-2 10-1 9q-1 2 2 7l5 9q4 10 15 16c6 3 6 4 12 11l6 3 5 2q3 4-2 1-7-3-2 1l8 5q11 3 6 0l-2-2 4 2 8 3 21 11 8 4 13 4 30 10 18 6a260 260 0 0 1 80 31q8 6 9 4v-10q0-7-2-3l-1-3q-1-11-2-5 0 7-1-1l-1-4v2l-1 3-1-5-1-5-16-8a246 246 0 0 0-50-19l-43-14q-12-2-12-5 1-2-6-2l-10-2-13-6v1l2 1 2 1c0 2-12 0-24-3l-13-2-1-1-5-2-5-1q-4 0 2 2l23 11c9 5 9 5 18 4q9 0 13 2t2 2l-4-1-12-1c-9 0-10 0-19-5l-18-9q-7-3-18-13c-9-8-11-10-13-16q-4-7-4-16-1-9 1-11l4-7q2-6 8-10 11-7 27-9 13-2 0 1-14 3-24 10-7 4-9 9l-4 6c-2 2-2 8 0 10l2 5 3 4v-1c-3-7-3-9 1-18 3-8 8-16 8-13l8-1q3-2 1 1-4 1 3 3l5-1q7-3 2 0l-3 2 3 1q6 1 1 1l-5-1q-2-1-3 1-1 1 3 2c4 2 10 1 9-1h2l5-2 3-1-2 2-3 2 5 2 6 1q1-1 2 1l5 3q6 1 13 5l13 4a88 88 0 0 1 25 9l3 3 3 3c3 2 12 14 10 14l-4-4c-4-7-14-17-16-17l-6-2-5-2-5-1q-3-2-6-1l-3-1-4-2h-5q-2 2 1 2 5 2-1 2l-4 1-2 2-2-1-2-2-4 1q-1 2 3 4l-2 5q-3 6-1 7 1 2 2-1l5-6 8-4q-13 11-8 14l1 4q0 3 11 17c5 7 7 8 19 9q7 0 11 3 3 3 8 2c5-1 5-1 9 3q5 5 9 2 2-2 6 2c5 5 16 9 11 5l-4-2q-3 0 0-1 3-2 7 3t5 3q3-3 9 0l7 3q5 0 8 4 5 5 8 3 5-2 8 3l6 4 4 1q2 1 2-5 0-5-2-5h-4l-2-1q-1-2-10-5l-17-5-18-6a317 317 0 0 1-70-23c-3-2-8-11-11-17q-4-10 4-11l7-1q5-1 15 5l11 10-3-2q-7-6-3 0l8 6q9 4 5 4l1 4c2 4 14 14 19 17l-15-5-9-3a87 87 0 0 0 37 13l-5-5-6-7-7-9q-9-9-6-9l5 4 3 4-1-4-4-9q-6-12 1-1c7 12 16 24 18 23l6 5q12 11 2-3-10-13 2 0l8 10q-1 0 0 0l4 1q6 5-1-3-6-7-5-8l6 7q6 7 10 9l5 2 3 1q4 3 1-2-7-9 3 1l8 6q4 1-2-4l-5-6-2-3 3 3q4 6 5-4c1-5 6-15 11-20q4-6 4-3l-1 2c-1 1-7 9-8 13q-2 6 2 0c2-4 6-10 8-10l-1 3c-3 4-10 18-10 22q0 8 2 1c1-5 7-18 8-17l-1 5c-5 8-7 16-3 11 2-3 8-5 9-4l-2 6c-3 6-4 16-3 16l2-1 3-4 3-2v4q-3 22 0 10l5-11-1 5-1 7q1 4 4-3l6-8q4-2 0 3-8 9-9 17 1 5 3 0c1-4 8-15 9-15q2 1-3 6-5 8-6 15-2 8 1 1l3-4v3l-3 11h2q3-3 0 9-3 7-1 7l-7 27c-3 6-1-1 2-10l3-11-3 3-6 5q-5 2-1 3l2 1-3 1-29 2-3 3 2-3 2-4 3-3 2-3q-1-2-10 10-9 10-4 2 4-4 1-4l-4 4-3 3 3 1q5 3 6 0c1-2 11-6 16-6q3 0 7 4 10 8-8 7c-9 1-11 1-16 4l-6 4h3l10-3q12 1 17 7 3 4-1 2c-8-3-12-2-20 5q-9 7-1-1t15-8h3l-4-1c-7-3-18-1-25 3q-6 5 3-5 10-10 25-10h8l-3-2-5-3c-4-1-13 1-17 4l-5 2-5 5q-3 5-4 3 0-2-3 1-3 4 0-2l-2-2q-3-2-4 1l-2 1 1-2q3-2-2-4-4-3-6 0l-3 3 2-2 1-4-2-1-3 4-3 4 12 6 12 8-12-6-12-7-3 3q-4 4-1 0l2-3-4-2q-3-3-7 0-6 4-3 0l2-1 2-1-10-5q-4-2-6 1l-3 2 2-3q4-3-3-3-3-1-6 2l-4 3 12 4c29 11 44 16 56 22l9 4 2-2c4-6 14-8 22-5q8 5 0 2-13-5-20 4-3 2-2 3l3 2q3 2 5-1c2-2 9-2 13 0q3 1 8 7 4 5 9 7c4 3 13 3 17 1q3-2 0 1c-5 5-18 2-25-5q-6-6 2 6 10 15 28 9 3-2 0 1-8 7-21 1-4-3-2 0 4 5 9 6t0 3q-5 0-9-6l-6-7q-3-3-1-2 3 1 0-2l-3-5c0-2-6-12-8-13l-6-2q-4 1-4 3 1 3-6-1l-3-1c-2 1 5 6 12 10q8 4 6 2-3-6 6 7 12 17 20 18h9l4-1c0 2-6 4-10 3h-4l6 5 16 21 2 4v-10l1-10 1 9q0 21 3 22v-8l1-10q1-1 1 9c-1 15-1 15-2 12m-44-34-6-7c-2-3-12-7-12-6-1 1 9 11 14 14l7 4zm-8 3q-2-4-12-9l-6-4 6 3 6 3-4-6-12-9-8-2 4 5 4 5c-1 1 8 9 14 12q11 6 8 2m17-7c-1-3-6-8-7-8l2 4q4 5-2-1l-14-11 3 6 11 8q11 7 7 2m-40-6q-3-5-13-8-7-4-9-3l3 4q3 5 12 8l10 4zm21-4a45 45 0 0 0-21-15l4 6q4 6 10 8 10 6 7 1m11 0-10-10q-6-5 1 2zm-51 0-3-5q-3-5-14-8c-15-6-14-6-11-1 5 6 6 7 15 10l9 3zm10-7c-3-3-18-9-19-8-2 1 5 5 12 9l9 3q1-1-2-4m12-1q-7-10-16-13l-7-2 5 7c5 5 8 7 21 12zm17-1c-5-5-13-11-12-8 1 2 8 9 11 10q6 3 1-2m-68-5c-4-4-5-5-14-8l-10-3 3 5q3 5 13 7l10 3zm77 3c0-2-7-9-11-11l-5-3c-1 0 5 8 8 10l4 4zm-59-3c-3-3-23-10-23-9q-1 2-3-1l-6-3q-3-1 0 0l2-1-4-5c-4-4-5-5-13-7l-9-1 5 7c6 7 7 7 16 10l15 4 21 8q2 0-1-2m16 2-4-6c-4-6-5-6-13-9l-9-2 4 5q3 5 12 9zm22-3-3-2-10-3 6 4q10 4 7 1m5-7c-5-5-20-13-18-10l4 4 18 12q1-1-4-6m-10 1c-4-3-14-7-14-6q1 3 10 7 10 5 4-1m-39 0c-6-8-6-9-14-11l-11-3-4-1 4 5c5 5 6 6 14 8l11 3zm28-1-2-1q-3 0 0 1zm-6-1-8-3 4 2zm1-4c-3-3-15-9-16-8q-1 1 2 3l8 6q13 5 6-1m-14-1-16-6v2l9 3q12 4 7 1m21-3-9-7-7-3 3 4c2 4 13 10 16 10zm-78-5c-5-6-6-7-11-8l-6-1 4 7c5 5 6 6 11 8q13 4 2-6m56 5c0-2-8-8-14-10l-8-4 6 2 6 2-2-4q-3-3-13-7l-10-3c-2 0 7 8 9 9q3 1 1 1-2 1 3 5 3 4 12 7c10 4 10 4 10 2m31-2c-3-3-18-13-19-11-1 0 7 7 13 10q12 7 6 1m-49-1-22-7h-3c-2-2-21-7-21-5l-1-1-7-3h-6c0 2 7 4 11 5l5 1 23 5zm24-4-11-7-8-2c-1 1 9 9 14 11q11 5 5-2m-31-3-6-6-2-2q2 0-2-3-5-6-22-10l-23-5 7 9 8 9 7 2 10 2q4 2-3-6l-7-8 11 11q3 4 13 7 18 6 9 0m37-1c-3-4-12-9-15-9-2 0 6 8 12 10l6 3q1-1-3-4m12-23q4-5 1-5c-1 0-6 6-6 8q1 2 5-3m-28-2 2-4-3-2q-3-3-6 2l-3 4 3 2q5 4 7-2m24 0q5-5 0-5l-4 2-2 3 1-2q5-5-1-6-3-3-6 1l-2 3c0 1 10 7 12 7zm-33-4q6-5 2-5c-3 0-8 6-7 7q1 3 5-2m-32-2 4-3-3-1-10-3q-7-3-9-1l-7 4 4-3 3-3-5-2q-5-2-8 2l-4 3 3-3 4-3-4-2c-6-1-7-1-11 3l-4 3 5 1 37 11zm28 0q6-5-1-6-3-1-7 2l-5 4 4 1c5 3 5 3 9-1m23-1q4-4 1-5c-2-1-6 4-7 6q1 3 6-1m20-2q4-5 1-6c-2 0-7 7-6 8q2 3 5-2m-52-1 4-4-3-2c-4-1-4 0-8 2q-8 7-2 1l5-4-9-4-9-3-5 4-6 4 13 4 15 5zm27 0 2-4h-4q0-4-4 2-4 5 1 2h1l-1 3q2 2 5-3m22-5q0-2-5 2t-2 4q2 2 5-2zm-29 1 3-3-4-1-4-1-4 3-3 2 3 2q6 4 9-2m23 0q4-3 1-4l-2-1c-1 0-5 6-4 7q1 3 5-2m-5-2q3-5 0-5c-2 0-6 6-5 7q2 3 5-2m24 1q4-5 1-5c-1-1-6 5-6 7q1 1 5-2m-51-3 3-2-4-2q-4-2-7 1-6 4-1 5 6 3 9-2m24-3c-1-1-7 4-6 6l4-3zm23 3q5-7-2-2l-3 5q2 2 5-3m28 2 2-2q-1-2-4 1h-5l-4 1zm-12-1v-2q-4 0-5 2 2 2 5 0m-103-3 6-4-6-2-5-2-5 4-5 4 9 3zm60 0q3-3 1-4-3 0-5 2l-3 4q1 3 7-2m25-4q-1-1-4 2-4 8 2 3 3-4 2-5m26 4h-2q-3 1-1 1 4 1 3-1m-81-1 4-3-7-3-9-3c-3 0-10 5-9 6l8 3c9 3 10 3 13 0m24-1 2-3c0-1-5 1-7 3q-3 2-1 2 4 3 6-2m25 1q5-4 0-5-3-3-5 2l-2 4q5 3 7-1m28-1q1-2-2-2h-3q-3 1 1 3t4-1m-119-2 4-4-7-3-7 4-5 4 4 1c5 2 6 2 11-2m109 2-1-1q-3-1-3 1 2 3 4 0m22 0q0-2-4 0-1 1 2 1zm-69-2 3-3-4-2c-4-2-4-2-10 3q-3 1 1 3 4 3 10-1m22 0q4-5 0-5c-1-1-6 6-5 7q2 1 5-2m42 0-1 2v1zm-23-1q-2-1-2 1h2zm31 1-4-1q-1 2 3 2zm-145-3 4-5-13-3-11-3-6 4-6 4 12 3 14 3zm90 1q4-5 0-6-3-1-5 3-3 4-1 4 3 3 6-1m33 1q0-3-4-2v2zm-61-3 4-4-13-5c-2 0-11 5-10 6l14 6zm49 1-2-2q-3 1-1 4 2 1 3-2m24 1c2-2-5-4-7-3q-3 2 0 3 4 3 7 0m16-1q0-5-6-4l-2-1-5-3v2l8 6q5 5 5 0m-116-1 4-3-6-2-5-2-4 3q-7 3-3 4l4 2q5 1 10-2m51-5-4-2q-4-3-7 1l-3 3 4 2q4 3 7 0zm31 5-1-1-1 1q-1 1 1 1zm-11-2 1-2q3 0 0-2-4-2-3 1l-1 2-1 2q3 3 4-1m21 0q-1-3-5-1v2q4 2 5-1m-104-2 4-3-5-2q-4-2-9 2l-4 3 3 1q5 3 11-1m77-1h-3q-3 0 0 2h3zm13 2-3-1v1q2 3 3 0m-141-3 5-5-7-2-6-1-6 4-6 4c0 1 8 3 13 3zm149 2v-2l-3 1-2-1q-1-3-4-2v2l3 2q5 3 6 0m-76-2 5-4-5-2-6-2-4 3-5 3 9 4zm29-1 3-3-4-1c-9-4-10-4-14-2l-3 1 2-2 2-2-5-2q-6-3-10 1l-3 3 13 3q0-1 0 0l15 7zm-63 0 4-4-23-7c-2 0-10 5-10 6l24 7zm84 1q0-3-5-1l1 2zm7-1-1-1-4-2-3-1h-2q-2-3-8-4h-2l-9-5q-5 1 3 4l14 5 8 4q4 3 4 0m-13-1q2-1-3-3l-5-1h-1c-2-2-12-6-13-5q-3 1 0 2l21 8zm-54-4q4-3-3-4-3-1-8 2-6 3 1 5c3 1 3 1 10-3m75 3-3-2-27-11 13 7 11 5q6 4 6 1m-126-6 5-3-6-2c-5-1-5-1-11 2l-4 3q3 2 11 3zm39 0 5-3-5-1-28-8c-5-2-5-2-10 1l-5 3 6 2c5 2 5 1 10-1q4-3 5-2l-4 2-3 3 23 7zm91 1-11-5q-3-2 0 1zm-70-4q7-3-2-4-3-1-7 1l-4 3 3 1q5 3 10-1m21 0c0-1-8-4-11-4l-2-1c0-1-9-3-10-2l4 2 9 3q9 5 10 2m-32-3 3-3-11-4-11-3-4 2-4 2 2-2q6-3-3-4c-4-1-12 2-12 3l6 2 28 9q1 1 6-2m37 1-5-3-9-3-6-2-4-1-22-7 10 4 24 9 10 4zm4-2c0-1-6-4-10-4q-5-1 4 2zm9-1-6-4-18-6c-17-5-19-5-15-3 14 7 50 18 39 13m-100-2 4-4-11-3-12-3-6 3-4 4 23 5zm58-1-10-5q-12-4-13-3l-1 2 22 7zm20-2-9-3-3-2a293 293 0 0 0-71-19l-8-1 6 2a590 590 0 0 1 75 22q10 4 10 1m14-2-2-1v1l3 1zm-81-2 4-3-11-3-11-3-5 2-5 3 24 6zm75 0-53-16v1l6 2 8 3 3 1q-1 1 2 1h2l1 1q4-1 25 6 12 4 6 1m-52-2q5-1-10-5c-18-7-19-7-25-5l-3 3 25 4q5-2 2 1-3 1 1 2 7 3 10 0m56-2-5-1 7 3zm74-2v3zm-168-5 4-3-17-5-9 4 6 2 12 3zm157 0-4-2c-8-3-8-4-11-6l-4-2c-2 1 9 8 14 9l3 1q2 3 2 0m9-5q0-6-2 2v3zm-5 3q0-2-1-1l-1-4q-1-8-2-3 0 8 2 9t2-1m-131-3a195 195 0 0 0-55-13q-11 3-3 4zm1-7q-8-3-3 0l5 1zm-17-2-22-6q-3 0 10 5 15 4 12 1m110-2c-2-2-12-4-10-2l10 4zm36-3q2-7 0-3l-2 7zm-3 0 2-5-3 3q-5 5-1 5zm-8 1-1-1q-3-1-1 2 2 1 2-1m-39-3h-6l7 2q3 1-1-2m-129-1-7-1 4 1zm1-3q-4-3-15-5-10 0 6 4c10 3 10 3 9 1m167-5q0-2-1-1l-1 3q1 3 1 1zm-168 1-3-1h-2l3 2q3 0 2-1m101 0-4-2c-4 0 1 3 5 3zm-15-5-6-2q-5-1 2 3 10 3 4-1m39 0-2-1v1l3 1zm-143 0h-2zm149-3v1l1 1zm-62-1-4-2q-3 0 1 2 6 3 3 0m-81 0-2-2q-3-3-1 0t3 2m-37-2-10-2-18-2q-3 1 5 2l12 2q14 2 11 0m32 1-6-6q-1 1 2 3zm-12-6-10-6c0 2 5 8 6 9h7zm-8 1-8-12q-4-1-1 3c3 5 9 12 9 9m-7-4-4-3 1 3q1 3 4 3 3 1-1-3m18 2v1l1 1zm116 0-2-1v1q3 3 2 0m-139-1-3-5q-1-3-4-4-4-2 3 6l4 4q3 0 0-1m124 1-9-4 4 2zm36-3-4-4q-3-2-1 1l6 6zm-169 0-3-1 2 2 2 1zm37 1-9-8q-7-4 2 5 8 6 7 3m-41 0c0-2-3-8-4-7zm101-3q-9-10-10-15l-1-5q-2-2-1-5 0-4-1-1-5 3 4 18 3 9 8 10 7 3 1-2m42 0q-5-4-5-2l7 5zm-154 2-1-5q-1-5-2-2l-1 5q0 3 2 2zm2-8-3-8 2 9 2 7zm5 7-3-13q-5-16-5-10l2 9zm129 0v1l1 1zm23 0-2-1v1q5 2 2 0m-145-4q-3-7-3-4l2 4q5 8 1 0m84 3h-3l3 1q3 0 0-1m7 0-6-3q-1 2 4 4h2zm-13-1-1-1-1 1 1 1zm-4-1-2-1-1 1 2 1zm7-2-2-1 1 2q3 3 1-1m61-2q-4-7-7-6c-1 1 6 10 8 10q2 0-1-4m-74 2-2-1-1 1 2 1zm-6-1v1l1 1zm14 0-2-1q-1 2 2 2t0-1m11-1q-5-4-5-2l7 4zm44 0h-2v1q3 2 2-1m-60-1q-3-3-4-1l4 3zm64-1q-4-8-6-8v4l7 7zm-142-1-1-2v3l1 2zm66 3-2-1h-1zm63-2h-2l2 2zm-103-2h-2q1 4 2 2zm33 2q-3-3-4-1l5 2zm13-1-3-2q-3 0 0 2 5 4 3 0m14-1-3-2q-2 0 1 3 5 4 2-1m49-2q-4-7-6-6c-1 1 5 10 8 10zm-82 2-1-1-1-2q1-3 3 0 4 3 3 0l-3-2-3-1-3-1-4-3q-2 0 3 5l3 2q-2 0 0 2 3 4 3 1m12-1-3-1 1 2q5 3 2-1m15 0q-2-3-3-1l4 3zm11-1-3-2 1 2 4 2zm-70-3-3-3 4 7zm55 3q-3-4-5-3l5 4zm-6 0q0-3-4-5-3 0 1 4zm58-3q-3-7-4-5c-1 0 4 8 6 8zm-130 0 1 1zm84-1q-4-5-4-2l5 5zm41-2-3-4 5 9zm-80 1q-4-6-6-5l8 8zm18-1-3-2q0 4 4 5 2 0-1-3m15 0-2-2c-1 1 3 5 4 5zm14-1-3-3q-3-2 1 4 3 5 2-1m-18 0q-4-5-6-4l4 6q3 1 2-2m62-2q-2-4-8-7-12-4-12 0v2l3 1q3 3 1-1l-1-3 3 3q5 7 3 1-3-5 2 1 7 7 3 1v-2l2 2q3 6 6 6zm-79 2-4-3 1 2q3 3 3 1m11 0c0-1-3-6-5-7q-4-1 0 4zm18-1-2-3q-3-3-1 2 3 4 3 1m-36-3-2-2 2 4q2 3 0-2m-3 2c0-2-4-6-4-5l1 3zm34 0-1-3q-4-5-2 1zm-60-4-3-5q-3-4 1 3 5 9 2 2m38 0q-3-4-5-3c0 1 5 7 6 6zm52 0-2-3q-2 0 1 4 4 5 1-1m-69 1-2-2-1-3q0-4-3-4l1 2v3l1 3q4 4 4 1m34-1q-3-4-5-3 1 4 4 5zm-43-9q-4-9-4-6l2 8 5 7zm19 6q-3-4-4-2l5 5zm18 2-5-6q-1 3 3 7 2 1 2-1m18 0q1-4-2-5-4 0-2 5 3 3 4 0m-41-4-2-1q1 4 3 4zm16 0q0-3-4-4-6-1-2 2l1 2 6 3zm-19 1-3-3 1 2q3 4 2 1m38 0q2-4-2-4-3-1-2 4 2 3 4 0m-27-4q-4-5-5-2 1 4 6 5zm21 2q2-4-1-4-3 1-2 4 2 2 3 0m-4-4q-1-2-5-3c-1 0-1 5 1 6h3zm19 2v-2l-2-2q-1-2-3 1v3q2 2 5 0m-45-3q-2-5-3-2l4 5zm-3 1-1-3-2-2 1 3q0 3 2 3zm22-1q-1-3-4-4-2 2 1 5 2 3 3-1m20 0q2-1-1-3t-4 1q-3 3 0 4 4 1 5-2m-46-1q-1-6-3-4l3 6zm19-1q0-4-5-5c-1 0-1 5 1 6q4 2 4-1m20 0 1-2q-3-1-4 3 1 3 3-1m-3-2q2-2-2-3h-4q-3 3 1 5t5-2m-25 0 1-2c1-1-4-4-5-3q-2 2 1 5t3 0m17-4q-2-3-5 0-2 3 1 4 4-1 4-4m22 2q-1-3-6-1v2q5 3 6-1m-45-1q0-5-3-5-3 1 0 5 3 5 3 0m55 2q3-2-2-3-5 0-2 2 2 2 4 1m-37-6-5-2-3 2 2 4q3 2 5-1zm-25 1q-1-5-2-2v4q4 4 2-2m42 2 1-2c0-1-6-3-8-2q-4 2 2 4zm14-1c1-1-4-3-6-2l1 2q3 3 5 0m11-2-12-4h-2c0-3-10-5-11-3-1 1 8 5 10 4h1l6 4q6 3 7 1zm-51 0q2-4-1-4-3-1-4 1-2 3 1 4 4 3 4-1m16 0 1-2c1-2-3-2-4 0q-2 1-1-1-1-4-6-2-3 2 2 3l4 1zm16-1c1-1-5-4-9-4q-4 1 3 4 6 3 6 0m-38-2q0-3-3-4-3 2-1 5 3 3 4-1m-6-4-1-1q-4 0-2 5 1 2 2-1zm-32-1-1 1-2 3c0 2 3-2 3-4m48 1-3-1q-4-2-4 1c0 2 5 3 6 2zm16 1c0-1-10-4-11-3q-1 2 3 3 8 2 8 0m-24-2q3-3-2-3c-4 0-3 4 1 4zm30-1c0-1-8-4-11-3q-4 2 3 3 8 3 8 0m-18-2-5-1-4-1-2-1q-5 1-1 2l6 3h5zm-18 0 4-5q3-5-2-3c-2 1-7 8-6 10q2 1 4-2m-20-8-5 7q0 3 2-2zm2-5-9 7-5 5c0 2 14-11 14-12m29 9q3-1-1-3-4-1-5 2 2 2 6 1m448 298 5-2 8-2zm-149-19-10-17c1 0 2 1 13 18l9 14zm149 13 7-1h6l-8 2zm-49-1-1-2 2 1q3 4-1 1m68 0 8-14c-1 4-8 16-8 14m158-2h3zm-224-2h2q6 1 1 1zm46-1q-7-2 6-2h8l7-6 6-5-7 7c-5 6-6 6-12 6zm-40-4-4-1 3-2c2-2 10-4 11-3l-1 1-5 1q-6 2-1 3l3 1q1 2-6 0m36-2-1-2 3 2 1 2zm7-2h3q6 1 14-5 5-6 2-1-6 7-14 7zm77-6-2-17-1-12 3 10 1 9v-7l-1-13 2 8q1 7 2 3v4q0 8-1 5v-3l-1 3-1 16zm-303-1-6-9-1-3 9 14 1 4zm211 3q-6-3-1-2l5 3zm-9-1h-9q-6 0-4-1c2-1 13-1 16 1q4 2-3 0m-361-17 4 1v1zm467-3-1-8-2-11-2-11-2-6c4 6 11 38 8 38zm-422 0-14-4-13-4 12 2zm162-4 3-1 1 1-3 1zm-199-3-7-4q-7-2 2 0 3 1-4-8l-9-11-21-6v2l-1-1-8-4-18-4h4l-2-2-1-2c4 4 5 5 13 6l9 2-19-23q3-1 5 2l8 12c7 10 8 10 13 11l16 5-2-3q-2-3-8-4l-5-2 5 1 5 1-5-6-5-6 6 6 9 10 4 4 1 1c-1 1 7 12 13 18l5 3q3 1 0 1l-1 1q1 2-2 0m186-2c3-3 17-3 19-1l-1 1q-9-3-18 1-3 0 0-1m395 1h3zm-304-7c10-10 11-19 5-35q-8-19 2-37c3-7 16-23 23-30q7-7 8-12c3-6 5-23 4-26q-1-1 0 0 3 3 0 17-2 12-11 23l-20 23c-2 4-3 5 10-6q13-10 18-21l3-6c2 0 5-16 5-20l1-8 1-4 1 4v7q-3 14 0 6l2-13 1-8v7l-1 10-3 11q-5 19-17 30l-17 13-3 6q-5 12 1 2l7-9 3-2-3 3q-6 9 0 3 6-9-2 5c-5 8-9 18-9 20l4-6q6-13 18-24c6-5 14-12 16-12l-6 5q-15 11-23 25-8 15-1 4c4-6 16-18 19-20l-6 7q-19 18-19 34l1 5 2-8 13-24 4-3-3 3c-6 9-15 30-15 36q0 4 5-6l8-13q5-5 0 1c-3 4-12 23-11 26l1-1 8-18a139 139 0 0 0 28-34l-8 14-12 15q-12 13-11 16l-1 2c-1 1-4 7-3 8l4-5q7-8 18-16l-1 1q-14 13-20 21-4 8-4 1v-3l-2 2v-1q-2-1-2 2c-1 5-10 17-13 17zm12-21v3zm-3-12-1-8-1-4 1-4-1-2q-2-4 4-17 3-6 1-5l-3 5-3 4-2 12c-1 6 0 8 3 16q5 17 2 3m3-26 2-6-6 11q0 3 4-5m-307 60 4 1v1zm196-1q7-6 18-5l6 3h-2l-8-1q-5-1-11 2zm-203-1 4 1v1zm484-7-7-26v-1c3 1 9 27 8 33zm-509 1 20 4q9 3-20-4m318-1q9-7 4-17c-3-7-7-10-23-22q-21-16-23-21l5 4 17 15c17 12 21 16 24 22q3 5 2 2l1-2c2 1 2 10 0 14s-8 9-10 9zm82 4 5-3q16-6 24-25 3-5 3-12l1-6c2 0 0 14-3 19-6 13-18 24-27 27zm5-12c8-8 11-12 13-21l2-5c1 1 0 8-2 13q-3 6 2 0 5-7 0 2-7 8-16 15-12 8 1-4m10-9-1 2q-3 3 0 0zm-500 15h3zm469-3 14-11c-5 6-16 14-18 14zm-475 2h3zm402-3-1-9c-3-9-8-15-26-26l-23-17c-7-1-20-28-19-39v2c2 8 7 20 11 27l7 8-1-2-8-18q-1-4 1-1c9 20 12 24 27 34q17 11 24 18 6 4 2-2l-2-2 2 2 2 4v1c2 0 5 10 5 17v6zm111-3 5-4q3 2 10-13 4-8 4-16 1-10 2-5c3 10-9 34-21 42q-6 4 0-4m-449 3q-3 0 0 0h4q3 1 1 1zm206-1v-12l-1-9c-3 0 4-22 9-30q5-6 0 4l-2 9q0 3-2 3c-1-1-4 5-4 7q1 3 3-3l1-3v3l-3 24q0 14-1 7m189 2 6-4q8-5 14-15l3-5c0 3-7 13-11 18-5 4-12 7-12 6m13-4q11-7 15-21 3-10 2-4-2 11-12 22l-8 6zm21-4q10-12 11-22 0-4 2-4c3 4-11 32-16 32zm222 6h2zm-115-7-6-23c1-2 8 24 7 28zm-43 2 4-1q5-2 0 1-6 3-4 0m-428 0h2zm-7-2h3q4 1 1 1zm-118-2h3zm-8-1h4zm305 0c0-2 10-5 14-5l6-1-5 1-10 3zm406 0 15-2-9 2zm-720-1h2zm4 0h2zm380-8-4-10 3 4 5 11 2 3zm72 6 3-3-2 3-2 2zm-466 1 4-1 3 1zm-6-1h3zm92-2h-3zh5l3 1h-3zm-7-1h3zm-6-1h3zm-10-2h5q4 1 1 1zm232 1 7-21 2-2-1 3-5 12zm-240-2h3zm325-3c-2-4-5-16-4-17q2 0 2 5l3 10q5 9-1 2m-333 2h3zm-8-1h3zm87-3q-3-3-11-4t-2-1l7 1 3 1-3-4-3-3 4 3q3 4 9 5 7 1 1 1-7-1-3 2 4 5-2-1m-94 2h3zm-9-1h3zm555-1h4l-3 1q-3 0-1-1m-203-1q-3-4-4-14-1-8 2 4l2 8q2 5 0 2m-286-2q-2-3 1-1l1 2zm238-3c-3-4-4-14-3-19q2-9 2 4c-1 8-1 9 2 14q2 8-1 1m259-1 6-4q3-3 2 0c-1 2-8 6-10 6zm134 2h4zm-635-3q-3-3 1-2l2 1-1 1q1 3-2 0m12 1h3zm80-1q-4-3 3-1l4 2zm248-2q-5-5-4-15 1-14 1-2c0 8 0 10 3 15l3 5zm-334 2h3zm-14-2h3zm356-7c0-6 4-16 9-22l13-15a100 100 0 0 0 23-30c0 2-4 11-7 15l-26 28q-8 11-11 24l-2 6zm-121 1v-2 4zm-4 0 1-5q1-1 1 3-2 8-2 2m121 2c-2-3 1-18 6-21l-2 4-3 12q0 8-1 5m-17-4q-9-5-13-19l-3-10 4 8q4 15 13 20l4 4zm189-7 5-8c1 2-8 16-10 16zm-286 6 1-3q3 0 0 3 0 2-1 0m279-1 11-22-4 12c-3 6-7 12-7 10m-283-5q3-9 9-15 5-5-1 3l-6 10-2 4zm4 1 5-8-1 4q-3 8-4 4m-218 0h3zm266-5-9-11-7-9c-4-5-9-16-9-18v-1q-2 2-2-2v-4 2l1 2 1-9v-8l1 9q1 15 6 24 5 8 1-3-4-12 2 1c3 8 8 18 9 17l-2-6-3-8q2 0 3 5l9 18q11 13-1 1m-271 4h3zm336-4q1-13 19-27l11-13q5-7 4-3c-1 3-1 4-15 17q-17 17-18 27 0 3-2 3zm166 4 1-4v-4l1-4q3-7 2-3l-1 4 4-9 3-5zm-507-1h2zm331-4q-1-20 18-38 14-13 17-13l-3 3a72 72 0 0 0-32 47v6zm-300-1-3-2 7 2 3 1zm283-8q-6-20-27-34l-9-7a74 74 0 0 1 37 40q4 13-1 1m167 2q-10-3-15-10c-3-4-7-14-6-14l1 1 7 14q9 7 18 8l3 1q0 2-8 0m14-3-7-2c-4-2-13-12-16-17q-6-14 0-3 11 20 25 21l3 1zm-167-10 3-9c3-6 14-17 19-20l3-2-3 2q-14 12-21 28-3 7-1 1m-329 2h3zm313-7q-4-10-19-21l-13-12c-5-5-11-14-11-18l3 5c4 8 9 13 21 23l14 12c4 4 9 14 8 15zm178 1q-11-7-15-19l2 3q11 18 24 17h2q-4 3-13-1m-68 0q-6-1-11-6c-3-4-8-16-6-16l1 2q1 7 7 14 8 7 2-1l-5-8q-1-8 2-1c1 7 9 14 15 15l4 2zm-215-5v-2 5zm57 2 1-1v2zm-66-2-1-2-3-5q-1-10 2-5c1 3 4 13 3 14zm-272 1 3-1zq-1 0 0 0m666-1 7-1h14c-4 2-21 3-21 1m-584 0h3zm629-2h8zm-392-3c-7-11-10-31-6-40l1-3v3l-1 12q0 14 7 27 3 7-1 1m-58-1-1-4-1 1-1 3v-3l-1-7q-2-4 1-1 1 6 2 2 1-1 2 5v6zm236-3c-9-4-15-17-12-24q1-3 1 3 1 15 14 21l2 1zm6-5-7-4c-3-3-6-11-6-16q1-5 2 1l2 8c2 4 7 10 9 9l3 2q5 5-3 0m-430 1h3zm169-1-1-4q0-5-3-5l-5 2q-5 5-1-1 2-2 6-2h4l-1 2 2 4q1 8-1 4m23-3-4-4 5 3 6 4 1 1zm-197 3h3zm618-2 3-1 3 1-3 1zm-365-8v-8c0-1 2 12 1 14zm178 3c-2-4-5-13-3-14v1q1 8 7 14 3 2 1 3-2 0-5-4m251 3 2-1 4 1-2 1zm-440-3q-5-18-3-28l1 8 2 17 1 6zm78 2c0-4 12-12 20-12 5 0 13-2 15-4q6-4 2 1c-4 2-6 3-16 5q-15 2-18 9-3 3-3 1m288 0q-4-2 3-3l4 1zm-670-2h2zq-3 0-1-1m623 0q3-3 0-1l-3-1c0-1 7-2 10-1l3 1-3 1-5 2q-4 0-2-1m14 0 8-4 1 1 1 1 1 1-2 1-7 1q-3 0-2-1m17-1 5-1 5 1-5 1zm-592-1h2zm144-4q0-3-3-5-6-2 1 0 4 0 3 5 0 8-1 0m37 2-5-3q-3-3-7-3-6 0-3-1 7-1 13 4l4 4zm259-1c-4-2-12-10-12-13q1-2 2 1l11 12q6 3-1 0m4-1q-9-4-13-12v-7q1-5 1 2 1 13 17 16 9 3 3 2zm148 1-12-2-14-2h5l7-1c0-1-12-2-16-1h-2l2-1c4-1 14 0 18 2l10 3q12 3 5 2zm-188-1 1-3h1l-1 2zm-274-1c0-2 5-7 7-9q4-2-3 5zm193-2c0-2 6-6 9-6q2 0-1 1l-6 4zm-314 0h3zm-92-1 6-4 6-2-6 3zm385-4q-6-9-2-19c5-11 21-10 22 2v3q-2-9-6-10c-9-5-19 5-16 17l4 8 1 3zm-149 1-2-2q1-1 6 2l2 2zm110-1q-8-10-8-24-1-10 1-15l2-5-1 5c-4 12-1 28 7 38q6 7-1 1m-407 0a232 232 0 0 1 67-27q1 1-7 3a276 276 0 0 0-60 24m587 0q-9-4-10-10 1-2 2 1 5 8 12 9l3 1-3-3c-4-3-8-12-6-12l3 5q4 7 12 8 5 1 0 3-6 1-13-2m31 1q-7-4-12-10l3 2q8 7 17 8l5 1h-5zm-360-3-2-3-3 2-2 2 2-2 3-5q1-4 1-1-1 3 2 6l2 4zm526 2 9-39zm-303-1h5zm149 0-15-6-4-3 4 2 16 5c4 0 10-2 10-3l-3-1c-5-1-17-6-20-9q-2-3 4 1 12 7 19 7 6 1 0 4zm-155-2 6-2q12-2 17-7 4-3 2 0-5 6-17 8zm46-1c-2-4 5-19 13-30a153 153 0 0 0 33-67l1-2q4 0 1-20 0-8 2 2 3 12 0 28l-4 16a95 95 0 0 1-26 49l4-5c4-5 16-27 16-31l-5 7-11 14a99 99 0 0 0-21 33zm43-81 1 1zm1-4 1 1zm93 84-8-2q-5 0-2-1l8 1 9 1q4 0 2 1-3 3-9 0m-423-3-3-2 3-2 3-1v1l-1 4q1 5-2 0m274 1a56 56 0 0 1 11-31q10-15-3-1l-13 12-2 2 2-2 1-3h-3l18-14q18-17 26-34l5-9-6 15-3 8-3 6q-7 10-1 4 9-11 13-23l5-21 3-14c1-2 2-5 2-17v-18l1 21c0 19 0 20-4 34q-6 22-14 33l-14 15a66 66 0 0 0-18 31q-2 10-3 6m50-102v3zM260 534l2-1h1zm60 0h3zm-55-3 3-1-1 1-2 1zm307-5c-6-7-8-11-8-22q-1-7 3-13c2-5 8-12 8-10l-1 2q-5 3-8 15c-2 6-2 7-1 13l3 8 2 3-1-3-1-7q0-8 1 1 2 11 7 17zm172 2 5-6q-1-1 0 0c3 2 7-19 7-37v-11l-4 8q-7 12-9 13v-2q-3 1 1-5c14-17 22-44 22-68 0-12-3-36-5-31q0 4-2-6c-6-30-5-41 6-104l2-26 1-14 1 10q1 14-4 43a310 310 0 0 0-7 75c1 7 1 7 2-10a345 345 0 0 1 9-66l-2 17-1 14q2-5 2 6v5q1-5 1 4l2 17c4 23 6 49 4 64q-2 15-2-16a181 181 0 0 0-5-45l3 49v11l-1-11-5-55-1-13v32l5 37v4-4q-1-1-1 12c0 17-2 26-7 41-2 8-3 10-3 23l-2 29 6-16 3-17c1 12-5 31-10 39q-4 6 3-1 9-10 14-33 6-22 6-13c0 6 2 0 2-7s2-17 3-18v7q-3 22 1 37a49 49 0 0 0 12 25c0 1-5-2-7-5q-4-3-3 0 2 5-2 0-4-4-8-16l-2-6-3 10-6 14c-4 6-13 16-14 15l-6 2-6 3zm41-23q-3-3-1 1l1 1zm-38-16q2-3-1 0l-3 3zm31-3 1 1zm-1-4 1 1zm-1-4 1 1zm-11-88-2-14q-1 2 2 15l2 11zm-5-14v3zM644 531l2-2 3-6q4-8-5-19-6-10-1-3 12 14 7 25-4 6-6 5m-335-2h2l4 1zm517 0 5-1q12 0 22-6c4-3 10-10 9-12l1-2 1-2-3 2q-7 6 1-4l4-7v-2l3-4 2-4c1 1-4 14-5 16q-3 2-1 2c2 1-2 9-7 14l-10 8c-7 2-19 4-22 2m-389-1h8l5 1h-8q-10 0-5-1m-283 0c0-1 10-6 19-9q18-6-2 2zm270-2q-8-2-3-2 4-1 6 1 4 4-3 1m189-5q-1-12-7-25l-3-6c1-1 7 10 8 16 3 7 4 21 3 21zm-53 0-5-4-3-12c-1-6 1-17 4-24l13-16h1l-5 6q-9 12-11 24-1 18 9 28l2 2zm103 2-4-3-2-2 3 2q8 5 17 0l3-2c0 3-13 7-17 5m-169-4-4-5 5 3q4 3 3 5zm-83 2-6-1-5-2c0-1 9 0 12 2q4 2-1 1m97-4q-1-3 1-9l1-6-1 1q-3 3-2 0l-6-6-6-4q-1-2 7 2 6 5 6-2l3-8 2-4-3 1q-6 3-5 0l2-1 2-2 1-2c2 0 9-7 11-9q1-3-1-1-3 0 0-1l4-3 3-3-4 2q-12 5-13-7 0-8-2-2l-11 11q-2 0 0-2 5-4 8-20l2-10-10 9q-12 11-11 14c-1 5 0 14 3 17q4 5-6-1c-5-3-6-4-10-11q-6-10-2-25c2-8 8-20 12-24l3-5 1-1-4 13-5 19 1-1 6-11q5-11 5-17 1-7 2-4c1 4-4 19-8 26-3 3-7 14-7 17q1 5 3-2l7-17 10-25q-1 8-10 29c-5 10-8 20-6 19l2-3 5-10 7-10 4-5c2-2 5-9 5-12q1-4-2 3-4 8-4 6l7-17v-3q0-3-2-3l-2 6q-1 10-7 23-6 11 0-7 7-16 6-21l-6 1c-10 2-26 2-23-1h3l8 1q11-1 7-3-2-1 5-1l12-2 18-3a88 88 0 0 0 40-12l10-4c5-2 17-5 19-4l-4 2-6 2q-3 3 9-1 15-4 8-1-1 2-3 1l-6 2h3l-4 2-6 2 5 6q11 12 13 23l2 5q3 5-1 2l-2-2 2 2-2 2c-7-9-18-21-20-21l6 7c7 7 16 18 15 19l-7-8-12-13-3-5-6-5-7-4a84 84 0 0 1 26 16c1-1-9-10-11-10l-6-4c-7-4-8-4-18-2q-11 2-6 3c6 0 16 24 16 39 0 9-3 25-7 29v-2l3-7q2-4-1-1l-2 2 1-2 1-4q0-3-1 0l-23 30 7-13 2-3-5 4q-13 11-3-1l10-18-3 3-3 4 2-4 4-8c3-5 4-19 3-20q-2-1-2 2c0 4-2 13-5 19q-5 10 1-5c2-7 5-24 3-24l-2 10q-3 15-12 26l-7 8-3 3h7l-6 7-5 6 4-1q4-2-5 7l-9 12q-5 11 0 4c3-5 11-14 13-14l-4 6q-11 13-11 16 1 2 5-4 6-9 9-10 2 1-3 7-9 12-11 22-1 7-2 2m-25-55q-2-3-2 0 1 4 2 2zm-5-2q-4-15 0-33c1-6-2-1-4 6q-4 17 3 29 4 5 1-2m44 0q6-6 0-3l-6 1-2 2q1 4 8 0m32-14c2-6 4-17 3-18q-2 0-2 6-3 12-9 21-6 8 1 1zm-39 10q-3 0 5-7 6-5 10-12l3-8 2-3 1-3-3 2-6 8-10 10 3-4q5-7 0-3l-2 2 4-5q6-6 8-18 1-7-3 0l-3 6-5 10-5 12q-5 12 1 14 3 0 0-1m43-10 2-7-5 8q-7 13-2 7zm-34 8 7-7 3-4q-1 6 4-3 8-11 8-22v-5c-1 6-7 17-11 24-4 6-14 16-16 16l-1 1q1 3 6 0m-17-4 9-27q0-4-4 3l-5 15-2 11q-1 3 2-2m-13-11c3-3 11-16 10-17l-5 6c-10 12-12 19-5 11m66-10c0-6-5-21-7-21l3 9 2 12 2 6zm-53-5 6-11c2-5 2-15 0-17q-3-4-2 1 3 6-4 23l-5 10zm28-6q4-7 2-7l-3 6-2 6zm-8-5 2-7v-5l-1-3q-1-5-5-5l-4 1 2 6 1 8 1 3 1-4 2-5 1-1-2 9-2 9v1zm17-3q0-7-1 1v3zm-26-4-1-3-1 5 1 2zm-8-4q1-7-2-7-2 0-1 3l1 5q2 6 2-1m7-7q1-2-2-2v2q2 5 2 0m15 1-1-2q-1-1-1 1 1 4 2 1m56-5-3-1 2 2 3 2q1-2-2-3m-5-3-2-1q-3 0 0 2t2-1m-9-8-1-1-2 1 2 1zm6-3-1-1-2 1 1 1zm-93 138-4-5 1-1zl3 4zm232 2 3-3 5-4q4-3 1-2l3-4q5-6 9-16l6-10-5 11-4 11 2-4q2-4 3-1l-8 10q-14 13-15 12m128-1 2-1 8-2 3-1-7 4q-8 3-6 0m-623-4h2zm449-4q9-6 13-15c3-5 8-22 7-24-1-1 4-11 5-12l-1 5-3 15q-5 22-20 32-10 7-1-1m-445 3h2zm18 0h4zm406-2-1-5-1-5 2 4 3 7q-1 2-3-1m-162-1-4-3h4l6 2 2 1q0 2-8 0m287-1-1-8 3 10zm-235-2c-3-5-3-17-1-24 2-6 9-18 15-24q7-8-2 6l-9 13c-3 6-3 8-3 15q-1 9 1 13 2 8-1 1m57-2-10-23q-1-13 2 1l6 17 5 10zm252 3 4-4q5-2 9-9l5-6c1 1-8 13-12 16q-6 5-6 3m-207-9-8-13c-3-5-6-16-5-21l1 6q2 14 12 26 8 10 6 9zm-57 3c-3-5-7-18-7-26l3-19v3a62 62 0 0 0 3 35l3 5q4 9-2 2m-128 0q-6-8-1-3l3 5zm17 0-6-5-12-8-9-7-4-4-3-3q5 2 8 6l6 5zm-260-3 1-1 1 1-1 1zm273-4-8-7-8-6-9-7-9-8c-2 0-7-5-7-7l-1-6c-3-7-2-20 2-29l2-7c-1-1-9 11-10 15l-1 10q0 6-1 4l-1-9c0-8 2-12 9-25q8-11 3 1l-4 6 5-5 5-6q3-1-1 6-8 15-7 26v7l1-7 3-7v1c-2 4-2 17 0 22 2 6 10 16 12 15l5 3 7 6 16 12q0 3-3 2m-36-33h-2l2 2zm223 29 2-12c2-13 6-24 15-42q12-26 17-48c3-15 3-15 4-10 1 4-1 34-2 39l-1 3-1-4q0-5-1 2c-1 5-5 12-6 12l2-5 5-20q0-6-1 2-5 16-11 24-15 25-19 51-1 6 1 3c3-3 9-15 10-22q3-9 2-3 1 4-2 9l-2 6 3-3 2-2-2 2q-1 4-6 9l-6 9-3 2zm-2-2q-4-15 0-37l2-9-3 6c-4 8-7 21-6 27v5l-1-4-2-15c-1-11 0-15 5-27 2-8 2-8-10-14q-18-9-26-25c-6-10-10-26-10-40v-6l-9-5c-9-5-9-5-17-5l-8-1 5-3 6-2-4 2-4 3 10-2q5-2 3 0-1 2 4 3l9 6 5 2q2-2-9-6-7-4-4-4 1-1 4 1l9 6 1-10 4-17c4-11 4-11 2-10l5-10 6-10-7 7-6 6 3-5q4-4 3-6-1-3 1-1 4 1 2-5-3-3 0 0h3q2-1 0-4l-3-3q1-1 3 2t3 1v-1l-2-2-2-3q-2-2 0-2 5-1-1-5-4-2-2-2c2 0 9 4 8 5q-1 0 0 0c3 0-2-6-6-7l-2-2h2l3 1-3-3q-9-3-1-1l4 1-3-6c-3-2-3-3-11-3h-9l9-1q11 0 8-1-1-3 2 0l3 1-2-2-3-1-4-2q-6-5-4-1 2 1-2 1-4-1-4-3v-2l-12-6-4 1q-2 1 1 1 6-1-3 3l-4 3 1 1-2 1h-4q-3 1-2 3 3 4-2 1l-5-1h-2l2 1c5 2 0 3-6 1h-1q3 1-3 1c-5 0-7 0-14-3l3 4 4 5q-4 0-9-7-6-8-1 0l2 5s-6-7-6-9l-2-2v2l4 9-4-6q-7-13-2 1v1l-3-5-2-7q-1-3-2 0l-2 4-1 2q-2-1 1-9 3-4 1-4c-3 0-8 9-6 10l2 4-1 3-1-2q0-2-1-1v3l-1 3c-1-1-1-10 1-14l4-5q4-3 1-4v-3q0-3 1 0l2 2v-1l-1-7q-1-7 2 3l2 5v-3l-1-7q1 6 4-4l2-6v2q0 6 2-1 1-4 1 0v2l2-2 1-3v3l-1 3 2-3 1-2v5l1-1 6-4c6-4 6-4 12-4 8 0 10 2 18 11l11 12q0-3 2 1 6 6 1-1-5-8 1-1l3 3 4 2 5 2 3 1q6 4 3-1l-3-7 4 6q4 8 4 5l-9-13h1l-1-3-3-6q-4-5 0-1l4 2q2 1-5-8-8-8-3-4l4 1-3-2q-11-11-12-9l-3-1q-2-3 2-1c10 1 29 14 36 24q4 6-5-3-13-13-15-13l11 13c6 7 13 12 13 12l2-1v1l1 4q1 3 6-5l9-12-9 9q-3 4-3 2t-1-1l-2-1 6-11-2 2-5 3 2-2 3-5 3-3-3 3q-7 5-4 1 1-2-3-5l-2-3 3 2 2 2q3 2 2-1c0-2-9-10-11-10l1 2-6-2-10-5-2-1c-1-1 6 1 11 4l5 2-10-7-1-1c2 0 18 10 21 13l3 3 5-6 5-6 6-6 7-7v2l-2 5q-8 9 1 3l6-3-6 7-16 18q-9 13 2 0l2-1q-1 3 2-1t0-2l4-5 5-5-1 3c-2 2-5 9-4 10l2-1q4-3 2 4l-3 11q0 7-3 9t-1 6c3 9-7 40-18 57-5 7-14 26-14 29q0 4 4-6l9-18 11-17c8-17 9-21 12-42q4-22 10-32c4-5 12-13 11-10q-1 2 1 1l2-2-3 4q-4 4-4 8l1 3q2-1-1 5l-9 35h2c1 1-2 18-3 19l-1-5q0-7-1-4-2 5-1-1l1-14q0-21 6-32l1-5c-1-1-5 8-7 17l-4 21c-3 13-5 20-16 42-10 24-19 49-19 57q1 8 6-14a115 115 0 0 1 12-32l14-26-4 12 3-4 4-6q3-2 0 2c-5 9-13 56-10 59l2-9q4-18 9-32 5-11 3-4l-2 11-3 18c-3 12-5 41-4 49l8 31-2-10a164 164 0 0 1 2-80 133 133 0 0 1 12-38l-2 10q-3 16 0 7 4-9 3-4-3 12-5 32l-3 17-1 9 4 22v-22l1 18 1 17 1-1 13-82v-13q1-2 1 6l1 9q2 3 2 25 1 24 2 22c1-3 1-30-1-47-2-22-2-25-1-25v2a302 302 0 0 0 6 52c0 12-3 30-7 45l-5 17q6-15 6-8c1 6-7 31-14 44-7 15-14 40-13 52v6l1-9q3-17 14-40c10-20 12-27 16-54l1 4c-3 23-6 31-15 49l-9 20c-3 8-7 25-7 32q0 11-1 6m2-51 4-12-2 2q-1 5-2 0 0-3-3 5-6 11-7 25v5l2-8zm-3-13-1-1-2 1 1 1zm0-4-1 1 1 1zm3-5q0-5-2-1-1 4 1 4zm-7-2h-2v1l2 1zm-12-1-1-3q-3-1-1 3 2 3 2 0m17-4q-2-3-3-1 1 4 3 4zm6 0q-2-3-2 0l1 2zm-33-5-5-8q-3-3 0 2l8 11zm14-1q-6-15-8-33-2-21-2-1c0 10 1 13 4 24q6 19 7 16zm21 0q2-1-1-4-3-4-1 3 1 6 2 1m-4-2q-2-3-2 1l1 2zm-7 0q-3-3-1 1l1 1zm-20-5q-2-4 0 2l1 1zm24-16-2-25v-14 10l4 28v-10a224 224 0 0 1 2-62q-1-8-3 1l-2 11q-7 33 0 65 3 20 1-4m13 13v-7l-2 9zm-43-9q-4-9-1 2l2 5zm13-12-1-20v-19c-1-1-3 13-3 21 0 5 2 19 5 31v-5zm34 8-1-2-1 4 1 2zm-60 1-1-1v2l1 2zm57-25v-4l-1 6v19c1 5 2-14 1-21m6 11q0-13-1 2v7zm-56-4v3zm12-21q0-15-1-14l-2 26q2 17 3-12m-22 15-1-4-1 4 1 4zm15-5v5zm48-7 1-5q1 5 1-4v-11l-1-4-1 3-1 18q0 25 1 3m8 6-1-3-1 4 1 3zm-41-9v8zm39-1-1-3-1 3 1 2zm-40-20 1-12-5 24q-1 12 4-12m-9-5 2-9-8 23q2 1 6-14m50 3v5zm-2-15q0-10-1-3v9zm-52-2q0-1 0 0l-2 4-1 3 2-3zm14-3 2-6-6 13q1 2 4-7m2 1v4-1zm19-1v3zm1-5 1 1zm-38-9 1-2zv1zm5-12-2 1q-3 5 0 2zm-4 1-1-2-2 2 1 1zm5-3q0-2-2-1l1 1zm1-3v1l1 1zm-5-4q-3-3-4-1l5 3q1-1-1-2m8 0-1-1-2 1q1 2 3 0m-4-3q0-2-2 1l1 1zm-3-1-1-2h-2q-1 3 1 3zm3-5-1-2q-3 1-1 1l1 3q-2 3 0 0zm-6 0-3-3-3-2 2 3zm2-4-2-1q-3 0 0 2t2-1m6-1 1-2h1l1-2v-2c-2 0-6 6-5 8q3 1 2-2m5-2-2 1q-2 4 1 1zm-7-3-1 2q0 3 1 1zm-6 0-1 1 1 1zm-55-3 16-13q0-2-3 2-5 7-19 12-9 3-3 2zm53 1-7-2 6 3zm7-3q-2-2-3-1-3 0 1 1 5 3 2 0m9-2 2-3c-2 1-6 7-5 7zm-27 2v1l1 1zm25-6q6-10-1-2l-4 4q-3 1-1 3 1 2 6-5m-15 3c0-2-6-10-6-9l4 9q3 3 2 0m-88-1-1 1 1 1zm93 0c0-2-16-23-17-22s14 23 16 23zm-84-5q-3-5-3-2c0 2 4 8 5 7zm-9-2-3 2-3 4 3-2zm100-1-3 2q-4 4-3 1 2-1-2-5l-2-4 2 2 3 2-3-3-4-3-2-2c-3-5-11-13-13-14h-1l13 17 7 9 3 6 3-4zm-65 2h-1l-3 2h1zm12-4q-2-4-3 3l-1 4 3-3q4-3 1-4m19 4-2-3q-3-2 0 1zm31-1-1-1h-1zm6-4 1-2-2 2-1 2zm-81-7v-5c-2-2-7 1-7 5 0 6 6 6 7 0m92-2-1 1-2 3 2-1zm-10-1 1-2-2 2-1 2zm-78 0-1 1v1zm9-9-5-2q-5-1 3 3 9 3 2-1m78-11q2-3-1-1l-2 2zM547 484q2-6 12-16c9-8 12-12 15-21q3-8 2-3-1 12-18 27l-8 9zm27-5 4-17zm282-6-14-20 7 9zm-1-11q-12-16-11-17l9 12 11 15zm-245 6v-1 3zm99-1a148 148 0 0 0 22-109c-3-16-3-44 1-76l2-4c-3 24-5 48-4 56l3 25q2 0 2-15l4-34q9-47 3-66l-2-4 1 5a187 187 0 0 1-3 50 247 247 0 0 0-2-71l-5-16-1 14v14l-1-15c-1-18-3-27-8-38q-9-19-17-16l-2-1q0-2 10 1 9 3 15 8 8 9 12 22c2 7 3 10 3 25q0 19 2 25l2 19q0 14 1 11c3-2 1 17-7 69l-1 3 1-15c3-25 3-28 2-28a268 268 0 0 0-6 73c1 24-5 54-15 71l-14 20zm31-241-14-43c1 0 9 17 11 25q6 13 1-4c-2-9-7-20-12-25l-4-4 1 3 5 14zm-10-21 1 1zm-11-32-2-2zq4 4 1-1M462 467l-4-8c-5-11-4-29 2-35q3-3 0 4c-3 5-3 7-3 16l1 13q2 6 2-7a76 76 0 0 1 6-24v13c0 12 0 13 3 20q4 7 1 5-6-6-6-18 0-9-1-7c-2 2-1 22 1 26q3 6-2 2m284 0q4-10 7-30c2-18 2-27-2-51q-8-49-5-57 1-1 1 10c0 11 2 23 5 44q8 35 0 67l-6 18zm111-10-11-17 6 8zm-247 4c-1-9-7-24-15-34l-4-7a67 67 0 0 1 19 41v4zm-195-5-5-4 7 3 4 4zm22 1-11-7q-4-5-8-6-8-3 0-2l9 5 11 7 6 4q0 2-7-1m424-6q-12-13-14-18l6 6 15 20zm-221 1-4-11-1-4c2-2 9 10 11 18q0 5-1 0-12-27-5-8l3 11zm-105 4 2-3 4-5q4-7 1 1c-2 4-7 8-7 7m78-4-3-6-1-5-2-9-3-8c2 0 11 27 10 30zm87 2 4-10 6-15c6-10 7-14 7-42a217 217 0 0 1 8-68l2-3-1 3a163 163 0 0 0 2 42c5 21 4 30-2 49-4 10-8 21-9 20l2-8c4-10 8-24 8-28l-2 5-5 15zm22-72 2-26zm4-2 1-12-1-4-1 3-1 21zm-4-18q3-21 1-21c-2 0-4 17-4 32q-1 22 3-11m-320 88q-9-4-9-6l-3-4-2-3q4 1 7 6 0 3 5 4l7 3v1zm-29-12-13-7-20-3q-12-1-4-3h15q-3 1 2 2l7 2c4 3 13 6 13 5l12 3q1 3-5 0l-4-1 6 4c11 5 4 4-9-2m428 2-4-16c-4-17-6-31-6-50-1-28 1-40 9-63l7-23-3 18q-6 24 0 9t1 0l-7 37c-1 7 10-28 11-36 2-13 1-39-1-37l-1-5q0-10 4 2c4 15 5 42 2 55l-6 17q-8 19-9 28l-1 4 2-4 16-47a166 166 0 0 0-10-76c1-1 4 7 7 15 7 20 9 48 4 71q-2 8-1 11l-1 2-1-2q0-4-1-1l-6 14q-3 12-7 16c-1 4-2 6-2 16 0 11 3 26 5 25l4-17 4-16-4 33 1-10 1-5-2 4q-4 13-3 16 1 7-3-2l-3-9zm-3-74 1 1zm-5-3 1 1zm10-12 6-18q4-10 4-23c0-8 0-8-3 9l-6 23-5 22zm-6-10 2-12-4 21q-1 12 2-9m1-15 2-11-5 18q-2 9 3-7m2-1 1 1zM650 440l-13-11 7 4 8 8zm-44-2-15-21-5-7 4 4 2 2-3-5-4-4 4 2c4 5 13 18 17 26q5 11 0 3m-197 0-4-1q-3-1-5-5t-5-3l-9-4-8-5q-6 0-11-5-2-2-4-1l-7-2c0-1 10 0 12 2q6 5 10 5 2-1 5 2 11 8 13 7 2-2 5 3 1 4 6 5l5 2zm449-8-6-9 12 16q2 5-6-7m-209 2-16-13 8 5 16 12zm103-1v3zm-386-2-3-2 7 2q8 5-4 0m438 2v-4q1-3 1 1 0 5-1 3m-174-2-8-16 5 8zm227-7q-9-11-4-6h3l1 1-1 1q-2-1 2 3l5 8zm-74-6a228 228 0 0 1 6-128l-3 17c-6 27-7 35-7 59 0 23 1 35 5 51q2 11-1 1m76 2-3-3-6-8 10 11q4 6-1 0m-235-18-3-4zl3 4zm-4-7-12-11c3 2 16 12 18 15q5 5-6-4m-154 4-1-2 3 2 1 1zm351-4 3-16-1 10q-3 17-2 6m-194-3-11-8-5-3 6 2c6 3 16 12 15 13zm0-4-10-7-6-3 13 6 3 1-9-6q-8-4-2-3c5 2 15 9 13 9q-3 1 1 4 3 2 2 3zm-132-4q3 1 0 1zm124-8-6-4c1-1 10 3 13 6q4 3-7-2m206-1v3zm-372-7-6-5q-3-4 2 0l9 8zm-15-1c-3-3-14-19-14-21l5 6 10 12q-5-2 1 3l2 3zm7-1-10-14 4 5zl3 3zm154 3q-5-2 5-2l4 1zm19-1q8-3 3 0l-4 1zm-192-6-5-8 2 2 4 5 5 7zm-6 4h-2l-3-2-1-2 1-1 3 2 4 4zm190 1 2-1h1zm-154-2h3q3 1 0 1zm361 0 1-1v2zm-213-2h11l-6 1q-7 0-5-1m16 1h3zm-148-3v-1l2 1q0 3-2 0m347-2v-1 3zm-233 1-9-3-5-2c2-1 12 2 15 4q3 4-1 1m29 0h5zm-165-3 1-1 2 1-1 1zm34 0 2-1v1l-2 1zm133 0-4-1 7 1q8 2-3 0m-28-2-5-4-2-2c1 0 11 8 9 8zm-128 0q-1-2 2-1l1 1q-2 3-3 0m163-1 1 1v1zm-43-1q-5-2 0-1l3 2zm-137-3v-2l2 1 1 2zm-15-1q-4-6 0-3l2 2-1-2-1-3q0-4 2-2l3 4q2 3-1 0-2-2-1 1v3zm46 0v-1h2v2zm213-8-1-7v-15q1-18 7-42l1-13 1-4q3 4-1 23a413 413 0 0 0-7 58m-245 0q-11-7-3-4l10 7zm-5-1q-3-3 0 0 2 0 1 2zm78 1q-2-3 1-1l1 2zm-5-3q1-5-2-8l-3-4 3 3q6 5 3 10-2 5-1-1m106-1-6-4 12 5q6 5-6-1m-153 1q1-3 3 0l-1 1zm-20-3-4-3 3 1q11 7 1 2m107 1-7-4-4-3c1 0 10 5 11 7q2 2 0 0m66-3q-5-3-9-2h-4l8-4c3 0 12 4 12 5l-4-1-7-3 5 4q9 4 6 4zm-64 1-3-2q1-2 4 1 5 4-1 1m-76-1 1-1 2 1-1 1zm57 0-2-2 2 1 4 1q1 2-4 0m-38-2 1 1-1 1zm16-4-8-7-3-2c3 0 13 8 16 13zm-67 2q-7-4-1-1l4 2q2 3-3-1m177-1-7-5 5 2 6 4v1zm-177-3-3-2 9 5zm69-3-7-6q-3-3 1 0l11 9zm4-3-4-4 10 8zm-72 1-3-2 9 4zm72-6-8-7 15 12zm98 4-2-3 4 5zm-93-5-5-5zl5 5zm-72 3-2-2 4 2q5 3-2 0m74-4-3-5 4 5 4 4zm7-4-5-5zq8 10-1 0m-81 3-5-2 5 1 7 1q5 2-7 0m-17-2h2zq-3 0-1-1m102-3-3-5 4 5 4 4zm76 2v-2l1 2 1 2zm3-2-4-4zl4 4zm-188 1c2-2 8-7 7-5l-5 4q-4 4-2 1m3 2 12-7q2 1-3 3l-6 3zm21-2h-5zl6 1 1 1zm42-6c-3-3-4-8-3-6l1 1zl2 4zm231 0-3-11-2-9-1-15-1-12-1-10-1-13v16l-1 16-2-30-1 10q-2 3-2-19 0-31-2-20c-2 10 0 37 3 46l2 12 2 15q3 8 2 11l-1 3-1-3v-5q-2 0-2-4l-3-12q-8-23-8-44 1-20-3 2l-3 13 4-27c3-18 3-19 1-18v-2q3-3 1-9-1-15-10-12-3 1-2-2l3-2 6-3q10-4 11-3l-2 1-11 5 3 4q4 2 4 6 2 6 4 2 3-1 5 3 13 13 13 54-1 24-3 19c-1-2 0 33 2 42q2 14 0 5m-4-65c0-13-3-30-6-37q-4-9-1 4a219 219 0 0 1 5 48zm-11-46-1 3q1 6 1 1zm1-9q-3-1-2 2h2zm89 118q2-5 2-21c0-15 0-17-3-28l-7-22 2 4 3 3q3 1 7 16 5 20 0 41l-4 11zm3-38-1-3zl1 7v3-3zm-1-7v3zm-1-4 1 1zm-2-7-1-4zl1 4zm-327 56q-7-6-1-2l6 6zm144 2-4-3 8 4q2 3-4-1m-193 1 23-15q12-6-1 2zm27-1c3-2 15-4 14-3l-7 2zm48-1-12-19zq3 4-1 0m-58-1 10-5-6 3zm36-3-3-3zl3 4zm-53 1c0-1 17-12 23-14q12-5-1 2l-14 8zm15-2 14-7q6-2-6 5-12 5-8 2m59-4-5-9-2-4c2 0 11 17 10 18zm11 1-5-8v-2l9 14zm103 0q-9-4 2 0l4 2zm-123 0-3-5 5 6zm10-8-4-10c1 0 10 18 9 19zm78 6-6-8q-7-10 0-1l7 9q7 6-1 0m-98 1q-2-3 1-1l2 2zm39-1-7-14 4 7zm52-1q-2-3 1-1l1 2zm208-20c1-31-2-44-12-65q-11-25-22-29l-1-3 6 3q12 9 23 38l3 6-1-5q-2-4-1-6v-3 3l4 11a171 171 0 0 1 4 50v-7l-1 11q-2 30-2-4m2-23v3zm-1-9v3zm-1-5v3zm-174 53-5-3 14 7zm209 1v-1 3zm-237-6-9-10 3 1 14 17zm-141 7 7-5zm71-9-4-9zl4 9zm59 8-3-6 2 4zm15-6-4-5 11 12zm8 5-3-3zl3 3zm-21-1q-2-4 1-1v2zm18-5-6-6 5 4 6 6zm-62 2q-1-3 1-1v2zm25-3-3-6 2 2 3 6 1 2zm16-1-4-6-3-7c1 0 10 14 9 15zm38 2-8-3-1-1 14 5q1 0 0 0zm-160-1 9-5zq-1 0 0 0m77-5-1-6 1 2 3 9zm34 1-3-8 2 4q6 13 1 4m34 2-5-3q1-1 5 2l6 3q3 0 0 0zm-73-3q-4-10 0-1l2 5zm271 1c3-24 3-32-1-48q-2-9-1 2l1 24a220 220 0 0 0-9-48v-2l-3-5q-3-2-2-3c2 0 9 10 12 17 4 9 7 23 7 31zm-3-56 1 1zm-242 56v-3l1 2v3zm64 0-5-1 12 1 2 1h-2zm-125 0 3-1h2zm93-3-2-2zl2 2zm-96 0 13-3h2l-4 1-7 2zm58-2v3zm73 2 4-1q9 1 2 1zm154-4q3-33-2-54l-11-25 2 6a127 127 0 0 1 7 47l-2-13-3-21c-2-9-7-24-10-28q-3-5 2-2c8 5 17 28 20 52v24l-3 17zm-15-86-3-4 4 7q5 5-1-3m-239 87q-3-6 0-1l1 3zm31 0 1-1v2zm32-4-5-5zl5 5zm-27 2 1-1v2zm71 1 3-1 3 1zm-82-2 1-1v2zm-42-2 4-1q4 1 1 1l-4 1q-3 0-1-1m38-5v-14l1-4v-3h1l2-6 2-4v6c0 9 2 14 2 5l1-7q1-1 1 8v15l-1 3q1 5-2-1l-1-5v-2q-2 0-2 7v6l-1-5-1-8q-2-9-1 6v9zm10 4v3zm4 0 1-1v2zm12-1v-2l1 2 1 2zm62 1h3l5 1zm-67-2v3zm71-1h5zm-102-1q-2-2 2-4 6-2 1 1zq1 2-1 1m26-1 1-1v2zm-47-1h4zm50-4v-5zv6zm75 4h5zm-109-2h2zq-3 0-1-1m38-2q-3-9-1-12v3zv4zm-11 1 1-1v2zm4-1v-1 3zm-27 0 3-1-1 1-2 1zm106 1h3zm-120-2h3zm11 0 9-4-4 2zm197-4 1-2 1 2-1 1zm-77 0-5-1-4-2 11 3zm-141-9 8-9 15-19 6-11-7 14-1 3 4-4 5-7 1-3q0-1 0 0l4-5 3-6-6 14-2 5 4-3 3-3-2 3c-3 5-14 17-21 23q-9 8-1-2 6-10-5 3zm133-10q-2-2 1-1l1 1q1 3-2 0m-88-4v-3l1-1zq0 2 0 0m232-1q0-5 1-3v6zm-235-9 6-9-2 5zm72-3-1-2h3v1l1 2q1 3-3-1m43-1q-2-3 1-1l1 2zm-45-3q-6-2-4-3l7 4zm186-4q-9-10-3-6l9 11q-2 0-6-5m-147 1-3-3zl3 3zm-76-1c1-4 13-11 17-10l-4 2-10 6q-3 5-3 2m34 0h2zm-3-2q3 0-1-1h-2 4q3 1 1 1l-2 1zm45-3-3-5 4 5 4 4zm-111 0 4-6 3-6h1q1 1-2 5zm-7-2v-3l1-1zq0 2 0 0m66 1h3zm-3-2h3zm-23-2 1-7c0-4 3-12 5-12v2q-3 3-1 3l1 1-2 3-1 3-2 5zm4-13-1 2q-3 4 0 1zm-2 14 4-7 3-4 2-2 1-1h-1l-1-1h2l3-1q2-3-1-1t0-2h1l3-1 2-2zm90-2-9-6-7-5 6 3 11 9zm-96-2 5-12-2 5q-3 11 0 5l1-1-1 4h-3zm15-3q13-14 13-11v3q-3 1 1 1 4-2-2 3-9 6 1 1c4-3 13-6 16-6l-4 2-5 2h23l-7 1c-15 0-20 1-27 5q-10 6-6 2 2-3-2 0l-3 1h-1l-2 1zm10-8 1-2-5 5zm-70 10v3zm10 0 2-3q3-2 0 1-2 6-2 2m88-1-10-2q-6 0-2-1c4-1 22 2 22 4q1 2-10-1m-95-7 1-9-1 15zm139 5-8-5-3-3 14 9q1 3-3-1m-127 0 1-1q1-1 1 1-2 2-2 0m-17-2v-1 3zm3-1v-1 3zm24-1 13-20-6 10q-10 18-7 10m235 0-1-1h2q2 1 1 2zm-120-4-4-3 3 1 5 3q3 3-4-1m-167-1q-3-2-12-2t-6-1c4-1 16 0 20 2q7 4-2 1m27 0 1-1v2zm156-2c-3-2-17-6-20-6l-2-1c1-1 20 4 24 7q3 3-2 0m-69-3 10-2q10-2-2 1zm-3-2 11-4-6 3zm73 0-12-3q-11-1-3-2 11 0 17 5 4 3-2 0m-175-3-9-6-4-3zq7 6 0 1m92-1 11-6-7 5q-7 4-4 1m4 2 9-5-5 3zm-9-2 9-8 9-7h1q2 1-1 2zm143-1c-5-2-8-2-17 0h-2l7-3 11 1 7 2q2 2-6 0m-186-2c0-2 7-13 11-18q6-6-1 3-3 3-6 10zm117-1q-7 0-5-1l16 1zm-71-4q3-3 0-1-2 0 3-4c5-5 24-15 25-14l-8 4c-9 5-20 12-18 13l-1 2q-5 5-1 0m68 0h22zm88 0h3zm-79-3h10l-6 1q-6 0-4-1m-107-4 4-4 5-4 11-7 4-1-2 2-7 6q-7 5-6 3 3-5-5 3-10 9-4 2m12-8-1 1v1zm8-5h-2q-2 1 1 1zm-24 12c3-6 13-15 15-15l-4 4-9 8zm100 0c1-2 21-5 31-5l13-1-14 2zm-108-3 5-6q6-5-1 2-6 8-4 4m101 0 13-2-5 2zm-105-1 1-2zq-3 3 0 0m24-5 7-6-5 5q-5 6-2 1m38 0c5-4 15-9 16-8l-5 2-5 3-10 6zm37 2 7-2-3 1q-10 4-4 1m14-3h2zm-55-2 8-4q8-3 3-2l-7 2-9 4 8-4q13-6 13-4h6l-3 2-9 3q-12 6-10 3m37 1 13-4q2 0-3 2zm-51-2 4-2-2 2-3 1zm9-2 2-2h-2l2-2h2q-2 3 6-1l3-1-16 8zm42 0 3-1v1zm6-1h3zm7-1h2zm297-2a189 189 0 0 1 54-26l-9 5z"/>
</svg>
